<svg width="972" height="704" viewBox="0 0 972 704" fill="none" xmlns="http://www.w3.org/2000/svg">
<g id="akira" clip-path="url(#clip0)">
<rect width="972" height="704" fill="white"/>
<rect id="Rectangle 61" y="97" width="972" height="607" fill="#E995D2" fill-opacity="0.76"/>
<g id="arm">
<mask id="path-2-inside-1" fill="white">
<path fill-rule="evenodd" clip-rule="evenodd" d="M284.218 229.15L145.329 212.573L142.391 695.567L145.473 695.935C128.12 734.425 145.94 783.455 188.185 809.157C233.431 836.684 289.56 827.029 313.555 787.591C336.371 750.088 321.913 699.159 281.533 670.58L284.218 229.15Z"/>
</mask>
<path fill-rule="evenodd" clip-rule="evenodd" d="M284.218 229.15L145.329 212.573L142.391 695.567L145.473 695.935C128.12 734.425 145.94 783.455 188.185 809.157C233.431 836.684 289.56 827.029 313.555 787.591C336.371 750.088 321.913 699.159 281.533 670.58L284.218 229.15Z" fill="#FEE9E9"/>
<path d="M145.329 212.573L145.803 208.601L141.356 208.07L141.329 212.548L145.329 212.573ZM284.218 229.15L288.218 229.174L288.239 225.602L284.692 225.178L284.218 229.15ZM142.391 695.567L138.391 695.542L138.37 699.115L141.917 699.539L142.391 695.567ZM145.473 695.935L149.12 697.579L151.361 692.609L145.947 691.963L145.473 695.935ZM281.533 670.58L277.533 670.556L277.52 672.641L279.222 673.845L281.533 670.58ZM144.855 216.544L283.744 233.122L284.692 225.178L145.803 208.601L144.855 216.544ZM146.391 695.591L149.329 212.597L141.329 212.548L138.391 695.542L146.391 695.591ZM145.947 691.963L142.865 691.595L141.917 699.539L144.999 699.906L145.947 691.963ZM190.265 805.74C149.388 780.871 132.758 733.872 149.12 697.579L141.827 694.291C123.483 734.978 142.492 786.039 186.106 812.574L190.265 805.74ZM310.137 785.512C287.55 822.637 234.079 832.396 190.265 805.74L186.106 812.574C232.783 840.972 291.57 831.421 316.972 789.67L310.137 785.512ZM279.222 673.845C318.292 701.497 331.621 750.2 310.137 785.512L316.972 789.67C341.121 749.976 325.533 696.821 283.843 667.315L279.222 673.845ZM280.218 229.126L277.533 670.556L285.533 670.605L288.218 229.174L280.218 229.126Z" fill="#F5C1BA" mask="url(#path-2-inside-1)"/>
</g>
<g id="arm_2">
<mask id="path-4-inside-2" fill="white">
<path fill-rule="evenodd" clip-rule="evenodd" d="M706.581 202.593L844.539 203.012L833.641 707.672L831.497 707.666C845.854 749.327 826.957 796.647 785.666 817.605C740.623 840.467 685.99 823.301 663.639 779.265C642.675 737.964 657.554 687.694 696.644 662.748L706.581 202.593Z"/>
</mask>
<path fill-rule="evenodd" clip-rule="evenodd" d="M706.581 202.593L844.539 203.012L833.641 707.672L831.497 707.666C845.854 749.327 826.957 796.647 785.666 817.605C740.623 840.467 685.99 823.301 663.639 779.265C642.675 737.964 657.554 687.694 696.644 662.748L706.581 202.593Z" fill="#FEE9E9"/>
<path d="M844.539 203.012L844.551 199.012L848.626 199.024L848.538 203.098L844.539 203.012ZM706.581 202.593L702.582 202.506L702.667 198.581L706.593 198.593L706.581 202.593ZM833.641 707.672L837.64 707.759L837.555 711.684L833.629 711.672L833.641 707.672ZM831.497 707.666L827.715 708.969L825.881 703.649L831.509 703.666L831.497 707.666ZM696.644 662.748L700.643 662.834L700.597 664.97L698.796 666.12L696.644 662.748ZM844.527 207.012L706.569 206.593L706.593 198.593L844.551 199.012L844.527 207.012ZM829.642 707.586L840.54 202.925L848.538 203.098L837.64 707.759L829.642 707.586ZM831.509 703.666L833.653 703.672L833.629 711.672L831.484 711.666L831.509 703.666ZM783.855 814.038C823.403 793.965 841.408 748.703 827.715 708.969L835.278 706.362C850.3 749.95 830.511 799.329 787.476 821.172L783.855 814.038ZM667.205 777.455C688.519 819.446 740.706 835.939 783.855 814.038L787.476 821.172C740.54 844.995 683.461 827.157 660.072 781.076L667.205 777.455ZM698.796 666.12C661.361 690.01 647.215 738.071 667.205 777.455L660.072 781.076C638.135 737.857 653.748 685.378 694.492 659.376L698.796 666.12ZM710.58 202.679L700.643 662.834L692.645 662.661L702.582 202.506L710.58 202.679Z" fill="#F5C1BA" mask="url(#path-4-inside-2)"/>
</g>
<g id="shirt">
<rect id="Rectangle 1" x="229.081" y="-90" width="518.219" height="698.993" fill="#959DE9"/>
<rect id="Rectangle 2" x="789.646" y="-77" width="299.839" height="197.209" transform="rotate(71.9807 789.646 -77)" fill="#959DE9"/>
<rect id="Rectangle 3" width="311.351" height="208.051" transform="matrix(-0.354289 0.935136 0.935136 0.354289 208.418 -96)" fill="#959DE9"/>
</g>
<g id="akira_2">
<path id="body" d="M478.805 248.293C222.561 259.603 187.61 429 227.11 533C266.609 637 478.805 609 478.805 609C478.805 609 721.109 625.5 741.609 522.5C762.109 419.5 735.049 236.983 478.805 248.293Z" fill="white" stroke="black" stroke-width="2"/>
<path id="mancha-4" d="M320.609 441C320.609 412.5 300.109 430.5 295.609 390C301.609 343 265.433 348.5 249.609 348.5C223.109 380.5 220.749 417 217.109 419C210.609 463.5 214.609 477 217.109 491.5C218.92 502 219.101 510.5 237.609 506C237.609 521 244.693 522.763 245.117 527C246.252 538.356 260.441 540.58 283.609 538.5C281.441 550.58 311.719 529.48 316.617 525.5C321.109 512.5 313.77 498.433 316.617 491.5C318.818 486.142 334.609 464.5 320.609 441Z" fill="#FEBF75"/>
<path id="mancha-3" d="M704.61 331C701.519 328.5 684.047 300.5 664.61 293C664.61 297.393 632.821 362.225 634.763 366.11C638.069 372.721 638.218 381.976 638.775 389.218C639.799 402.534 668.978 404.462 677.77 409.116C682.724 411.739 681.031 424.291 683.547 428.694C687.501 435.614 692.969 442.269 701.519 443.778C711.932 445.615 738.11 445.5 742.11 430C743.11 410 732.11 381.5 723.61 361C716.053 342.775 704.61 334 704.61 331Z" fill="#332020" stroke="black" stroke-linecap="round" stroke-linejoin="round"/>
<path id="leg-left" d="M343.109 545.605C343.109 545.605 385.629 512.144 411.109 508.605C483.109 498.605 480.109 538.605 480.109 538.605C480.109 538.605 483.248 568.762 473.109 575.605C462.12 583.021 435.738 585.331 430.609 573.105C428.268 567.523 425.609 553.105 425.609 553.105" stroke="black" stroke-width="3"/>
<path id="leg-right" d="M617.568 545.605C617.568 545.605 575.049 512.144 549.568 508.605C477.568 498.605 480.568 538.605 480.568 538.605C480.568 538.605 477.43 568.762 487.568 575.605C498.558 583.021 524.94 585.331 530.068 573.105C532.41 567.523 535.068 553.105 535.068 553.105" stroke="black" stroke-width="3"/>
<g id="face">
<path id="ear-right" d="M625.829 97L521.109 140.772L617.809 215.24L625.829 97Z" fill="white" stroke="black" stroke-width="2"/>
<path id="ear-left" d="M347.609 90V203.5L453.609 143L347.609 90Z" fill="#332020" stroke="#332020" stroke-width="2"/>
<path id="face_2" d="M299.109 301.5C299.109 301.5 360.109 159.5 396.609 149C433.109 138.5 513.609 138.5 562.609 149C602.109 166.5 658.109 301.5 658.109 301.5C658.109 301.5 591.609 420.5 473.609 420.5C337.109 416.996 299.109 301.5 299.109 301.5Z" fill="white" stroke="black" stroke-width="2"/>
<path id="mouth-1" d="M477.109 343C477.109 343 503.609 343 558.109 369.5" stroke="black" stroke-width="2"/>
<path id="mouth-2" d="M475.109 343C475.109 343 448.609 343 394.109 369.5" stroke="black" stroke-width="2"/>
<g id="nose">
<path id="right" d="M503.609 307.5V263.5" stroke="black"/>
<path id="nose_2" d="M476.609 342L453.109 308H503.109L476.609 342Z" fill="#FEE9E9" stroke="black"/>
<path id="left" d="M453.109 309V265" stroke="black"/>
</g>
<path id="eye-righ" d="M503.109 267C503.109 267 531.484 255.869 550.609 253C571.271 249.901 604.109 253 604.109 253" stroke="black" stroke-width="6"/>
<path id="eye-left" d="M453.109 267C453.109 267 424.734 255.869 405.609 253C384.947 249.901 352.109 253 352.109 253" stroke="black" stroke-width="6"/>
<path id="mancha-2" d="M532.752 159.915C540.774 155.674 537.789 159.486 546.617 157.5C565.913 153.158 533.934 143 518.109 143C460.186 143 460.109 145 456.47 147C442.617 153 440.117 165 442.617 179.5C432.117 179.5 438.829 197.947 442.617 197C448.911 195.427 431.693 209.763 432.117 214C433.253 225.356 455.949 210.58 479.117 208.5C476.949 220.58 498.72 216.48 503.617 212.5C493.117 197 534.27 197.433 537.117 190.5C539.318 185.142 527.367 162.761 532.752 159.915Z" fill="#FEBF75"/>
<path id="mancha-1" d="M549.521 145.591C529.387 145.591 508.75 141.258 488.141 141.258C488.141 145.651 490.852 147.483 492.794 151.368C496.1 157.979 496.249 167.234 496.806 174.475C497.83 187.792 527.009 189.72 535.801 194.374C540.755 196.997 539.062 209.549 541.578 213.951C545.532 220.872 551 227.527 559.55 229.036C569.963 230.873 612.532 227.665 604.402 209.779C601.721 203.88 605.183 197.677 601.514 191.806C598.211 186.522 594.035 178.901 589.609 174.475C584.034 168.9 582.109 165 578.109 159.5C574.109 154 564.609 149 559.55 147.5C555.874 147.5 553.255 145.591 549.521 145.591Z" fill="#332020" stroke="black" stroke-linecap="round" stroke-linejoin="round"/>
</g>
<g id="bigotes-right">
<path id="Vector 19" d="M553.109 303L678.609 235" stroke="black"/>
<path id="Vector 21" d="M541.109 334L670.109 343" stroke="black"/>
<path id="Vector 20" d="M546.109 319.5L704.109 287" stroke="black"/>
</g>
<g id="bigotes-left">
<path id="Vector 22" d="M415.109 332L286.109 341" stroke="black"/>
<path id="Vector 23" d="M410.109 317.5L252.109 285" stroke="black"/>
<path id="Vector 24" d="M403.109 301L277.609 233" stroke="black"/>
</g>
</g>
<g id="my-legs">
<path d="M187.109 704C187.109 704 215.109 558.5 337.109 558.5C437.109 558.5 480.609 612 480.609 612C480.609 612 520.609 558.5 647.109 558.5C764.609 558.5 781.609 704 781.609 704H480.609H187.109Z" fill="#9CC9F2"/>
<path d="M480.609 612C480.609 612 437.109 558.5 337.109 558.5C215.109 558.5 187.109 704 187.109 704H480.609M480.609 612C480.609 612 520.609 558.5 647.109 558.5C764.609 558.5 781.609 704 781.609 704H480.609M480.609 612C480.609 663 484.209 704 480.609 704" stroke="black"/>
</g>
</g>
<defs>
<clipPath id="clip0">
<rect width="972" height="704" fill="white"/>
</clipPath>
</defs>
</svg>
