<svg width="158" height="312" viewBox="0 0 158 312" fill="none" xmlns="http://www.w3.org/2000/svg">
<rect x="45.7864" y="255.873" width="12.8009" height="54.0396" transform="rotate(0.340901 45.7864 255.873)" fill="#FEE9E9" stroke="#F5C1BA" stroke-width="4"/>
<rect x="87.0251" y="255.873" width="12.8009" height="54.0396" transform="rotate(0.340901 87.0251 255.873)" fill="#FEE9E9" stroke="#F5C1BA" stroke-width="4"/>
<mask id="path-3-inside-1" fill="white">
<path fill-rule="evenodd" clip-rule="evenodd" d="M114.852 169.856L99.9652 177.644L126.154 227.711C127.12 232.182 131.098 235.532 135.858 235.532C141.341 235.532 145.786 231.088 145.786 225.605C145.786 221.258 142.993 217.564 139.104 216.219L114.852 169.856Z"/>
</mask>
<path fill-rule="evenodd" clip-rule="evenodd" d="M114.852 169.856L99.9652 177.644L126.154 227.711C127.12 232.182 131.098 235.532 135.858 235.532C141.341 235.532 145.786 231.088 145.786 225.605C145.786 221.258 142.993 217.564 139.104 216.219L114.852 169.856Z" fill="#FEE9E9"/>
<path d="M99.9652 177.644L98.1112 174.099L94.5668 175.953L96.4208 179.498L99.9652 177.644ZM114.852 169.856L118.397 168.002L116.543 164.458L112.999 166.312L114.852 169.856ZM126.154 227.711L130.064 226.866L129.95 226.337L129.699 225.857L126.154 227.711ZM139.104 216.219L135.559 218.073L136.295 219.481L137.797 220L139.104 216.219ZM101.819 181.188L116.706 173.401L112.999 166.312L98.1112 174.099L101.819 181.188ZM129.699 225.857L103.51 175.79L96.4208 179.498L122.61 229.565L129.699 225.857ZM135.858 231.532C133.021 231.532 130.641 229.535 130.064 226.866L122.244 228.556C123.6 234.83 129.175 239.532 135.858 239.532V231.532ZM141.786 225.605C141.786 228.878 139.132 231.532 135.858 231.532V239.532C143.55 239.532 149.786 233.297 149.786 225.605H141.786ZM137.797 220C140.124 220.805 141.786 223.016 141.786 225.605H149.786C149.786 219.501 145.862 214.324 140.411 212.439L137.797 220ZM111.308 171.71L135.559 218.073L142.648 214.365L118.397 168.002L111.308 171.71Z" fill="#F5C1BA" mask="url(#path-3-inside-1)"/>
<mask id="path-5-inside-2" fill="white">
<path fill-rule="evenodd" clip-rule="evenodd" d="M30.9334 169.966L45.8207 177.753L19.6318 227.82C18.6661 232.292 14.6882 235.642 9.92772 235.642C4.44474 235.642 -9.53674e-05 231.197 -9.53674e-05 225.714C-9.53674e-05 221.368 2.79277 217.674 6.68173 216.329L30.9334 169.966Z"/>
</mask>
<path fill-rule="evenodd" clip-rule="evenodd" d="M30.9334 169.966L45.8207 177.753L19.6318 227.82C18.6661 232.292 14.6882 235.642 9.92772 235.642C4.44474 235.642 -9.53674e-05 231.197 -9.53674e-05 225.714C-9.53674e-05 221.368 2.79277 217.674 6.68173 216.329L30.9334 169.966Z" fill="#FEE9E9"/>
<path d="M45.8207 177.753L47.6747 174.208L51.2191 176.062L49.3651 179.607L45.8207 177.753ZM30.9334 169.966L27.389 168.112L29.243 164.567L32.7874 166.421L30.9334 169.966ZM19.6318 227.82L15.7219 226.976L15.8363 226.446L16.0874 225.966L19.6318 227.82ZM6.68173 216.329L10.2261 218.183L9.49001 219.591L7.98902 220.11L6.68173 216.329ZM43.9667 181.297L29.0794 173.51L32.7874 166.421L47.6747 174.208L43.9667 181.297ZM16.0874 225.966L42.2763 175.899L49.3651 179.607L23.1762 229.674L16.0874 225.966ZM9.92772 231.642C12.7653 231.642 15.1455 229.645 15.7219 226.976L23.5416 228.664C22.1866 234.939 16.6111 239.642 9.92772 239.642V231.642ZM3.9999 225.714C3.9999 228.988 6.65388 231.642 9.92772 231.642V239.642C2.2356 239.642 -4.0001 233.407 -4.0001 225.714H3.9999ZM7.98902 220.11C5.66189 220.914 3.9999 223.126 3.9999 225.714H-4.0001C-4.0001 219.611 -0.0763435 214.434 5.37444 212.549L7.98902 220.11ZM34.4778 171.82L10.2261 218.183L3.13733 214.475L27.389 168.112L34.4778 171.82Z" fill="#F5C1BA" mask="url(#path-5-inside-2)"/>
<rect x="40.3983" y="145.419" width="65.6763" height="88.5867" fill="#E995D2"/>
<rect x="106.606" y="145.479" width="37.5807" height="27.7983" transform="rotate(61.7099 106.606 145.479)" fill="#E995D2"/>
<rect width="37.5807" height="27.7983" transform="matrix(-0.473937 0.880559 0.880559 0.473937 39.9634 146.51)" fill="#E995D2"/>
<rect x="40.3983" y="223.314" width="65.6763" height="29.0198" fill="#30588F"/>
<rect x="40.3983" y="243.17" width="30.5471" height="21.383" fill="#30588F"/>
<rect x="78.5825" y="243.17" width="27.4924" height="21.383" fill="#30588F"/>
<rect x="38.8708" y="301.21" width="21.383" height="10.6915" fill="#0D0D0D"/>
<rect x="84.6917" y="301.21" width="21.383" height="10.6915" fill="black"/>
<path d="M95.0145 3.07465C80.2845 10.342 76.7715 28.1848 76.7715 28.1848C76.7715 28.1848 101.765 67.123 122.813 72.3544C143.665 77.5371 156.91 56.0661 156.91 56.0661C156.91 56.0661 138.425 55.4597 129.329 43.0354C120.424 30.8735 118.261 -8.39435 95.0145 3.07465Z" fill="black" stroke="black"/>
<path d="M34.2046 129.174H113.04C113.04 129.174 140.468 90.2989 124.334 59.0253C114.152 39.2895 98.7614 29.6315 76.5544 29.489C54.137 29.3452 31.4145 41.6023 22.2598 62.0658C7.4917 95.0769 34.2046 129.174 34.2046 129.174Z" fill="black" stroke="black"/>
<path d="M115.283 105.753C115.283 134.489 96.1831 157.092 73.3972 157.092C50.6112 157.092 31.5109 134.489 31.5109 105.753C31.5109 77.0168 50.6112 54.4143 73.3972 54.4143C96.1831 54.4143 115.283 77.0168 115.283 105.753Z" fill="#FEE9E9" stroke="#F5C1BA" stroke-width="4"/>
<path d="M82.1745 85.4984H23.4343C23.4343 85.4984 32.2116 43.6376 74.7476 42.9624C117.284 42.2872 122.01 85.4984 122.01 85.4984H88.251L85.5503 69.9694L82.1745 85.4984Z" fill="black" stroke="black"/>
<circle cx="50.7775" cy="105.576" r="14.2736" fill="white" stroke="black" stroke-width="2"/>
<circle cx="52.3049" cy="105.576" r="7.63678" fill="#2C1010"/>
<circle cx="99.6527" cy="105.576" r="14.2736" fill="white" stroke="black" stroke-width="2"/>
<circle cx="101.18" cy="105.576" r="7.63678" fill="#2C1010"/>
<path d="M62.9961 138.414C62.9961 138.414 79.0333 142.996 87.4338 138.414" stroke="#C91C1C" stroke-opacity="0.58" stroke-width="3"/>
</svg>
