<svg width="258" height="71" viewBox="0 0 258 71" fill="none" xmlns="http://www.w3.org/2000/svg">
<path d="M106.369 17.9894C105.68 46.4912 82.3597 69.3846 53.6922 69.3846C24.5911 69.3846 1 45.7935 1 16.6923C1 13.1166 1.7081 10.3735 2.9025 8.28251C4.09271 6.19885 5.79982 4.70247 7.90285 3.66645C12.156 1.57123 18.0216 1.36428 24.3127 2.15566C30.571 2.94292 37.0846 4.6947 42.5285 6.35535C44.6974 7.01693 46.6873 7.66113 48.4235 8.22318C48.8653 8.3662 49.2906 8.50389 49.6983 8.63521C51.68 9.27348 53.2974 9.77904 54.3039 9.98036C55.9588 10.3114 58.5583 10.966 61.7911 11.7801C62.5962 11.9828 63.4405 12.1955 64.3194 12.4154C68.7063 13.5136 73.9101 14.7838 79.2434 15.8828C84.5736 16.9812 90.0538 17.9129 94.9928 18.3292C99.2803 18.6906 103.245 18.672 106.369 17.9894Z" fill="#E0F0FF" stroke="black" stroke-width="2"/>
<path d="M80.8463 24.623C80.8463 39.4497 68.8269 51.4691 54.0002 51.4691C39.1735 51.4691 27.1541 39.4497 27.1541 24.623C27.1541 9.79631 38.5018 4 56.0002 11C61.0002 13.0001 75.0002 11 80.8463 24.623Z" fill="black"/>
<path d="M151.016 17.2599C151.704 45.7617 175.025 68.6551 203.692 68.6551C232.793 68.6551 256.385 45.064 256.385 15.9629C256.385 12.3871 255.676 9.64401 254.482 7.55301C253.292 5.46936 251.585 3.97298 249.482 2.93696C245.229 0.841738 239.363 0.634788 233.072 1.42617C226.814 2.21343 220.3 3.96521 214.856 5.62586C212.687 6.28744 210.697 6.93164 208.961 7.49369C208.519 7.6367 208.094 7.7744 207.686 7.90571C205.705 8.54398 204.087 9.04955 203.081 9.25087C201.426 9.58188 198.826 10.2365 195.593 11.0506C194.788 11.2533 193.944 11.466 193.065 11.6859C188.678 12.7841 183.474 14.0543 178.141 15.1533C172.811 16.2517 167.331 17.1834 162.392 17.5997C158.104 17.9611 154.14 17.9425 151.016 17.2599Z" fill="#E0F0FF" stroke="black" stroke-width="2"/>
<path d="M176.538 23.8935C176.538 38.7202 188.558 50.7396 203.384 50.7396C218.211 50.7396 230.23 38.7202 230.23 23.8935C230.23 9.06682 218.883 3.27051 201.384 10.2705C196.384 12.2707 182.384 10.2705 176.538 23.8935Z" fill="black"/>
</svg>
