<svg width="887" height="510" viewBox="0 0 887 510" fill="none" xmlns="http://www.w3.org/2000/svg">
<rect x="91" y="48" width="203" height="461" fill="#250386"/>
<rect x="320.664" y="48" width="470.713" height="262.332" fill="#250386"/>
<rect x="642.888" y="267.766" width="56.4262" height="42.5671" fill="#F6D8C7"/>
<path d="M695.682 288.843H599.877L562.471 262.609C562.471 262.609 530.245 240.136 526.091 218.062C521.299 192.602 551.829 156.92 551.829 156.92C551.829 156.92 538.092 119.071 551.829 103.23C564.407 88.7265 599.877 92.836 599.877 92.836C599.877 92.836 624.259 67.0076 644.635 65.8603C667.147 64.5927 695.682 92.836 695.682 92.836C695.682 92.836 732.175 88.627 745.856 103.23C760.264 118.61 751.301 156.92 751.301 156.92C751.301 156.92 779.154 179.276 778.524 198.759C777.923 217.328 751.301 237.776 751.301 237.776C751.301 237.776 755.621 277.552 738.432 288.843C724.478 298.008 695.682 288.843 695.682 288.843Z" fill="#4296A9" stroke="#3CACC6"/>
<path d="M651.618 340H442V362.521H651.618V340Z" fill="#356EC2" stroke="#356EC2"/>
<path d="M442 508.546V356.097H468.976L449.672 508.546H442Z" fill="#356EC2" stroke="#356EC2"/>
<path d="M651.807 508.5V355.732H624.831L644 508.5H651.807Z" fill="#356EC2" stroke="#356EC2"/>
<path fill-rule="evenodd" clip-rule="evenodd" d="M766.954 425.009L757.981 497H776.154V508.5H693V497H719.894L699.544 425.009H675V413.13H756.255L757.517 402.819L762.015 369.573H754.69L762.857 317.602H769.048L771.024 303L782.16 303L768.434 413.13H776.963V425.009H766.954ZM754.801 425.009L745.989 497H731.539L712.939 425.009H754.801Z" fill="#356EC2"/>
<path d="M757.981 497L757.485 496.938L757.415 497.5H757.981V497ZM766.954 425.009V424.509H766.512L766.458 424.947L766.954 425.009ZM776.154 497H776.654V496.5H776.154V497ZM776.154 508.5V509H776.654V508.5H776.154ZM693 508.5H692.5V509H693V508.5ZM693 497V496.5H692.5V497H693ZM719.894 497V497.5H720.555L720.376 496.864L719.894 497ZM699.544 425.009L700.026 424.873L699.923 424.509H699.544V425.009ZM675 425.009H674.5V425.509H675V425.009ZM675 413.13V412.63H674.5V413.13H675ZM756.255 413.13V413.63H756.697L756.751 413.191L756.255 413.13ZM757.517 402.819L757.021 402.752L757.02 402.758L757.517 402.819ZM762.015 369.573L762.511 369.64L762.587 369.073H762.015V369.573ZM754.69 369.573L754.196 369.496L754.105 370.073H754.69V369.573ZM762.857 317.602V317.102H762.429L762.363 317.524L762.857 317.602ZM769.048 317.602V318.102H769.485L769.543 317.669L769.048 317.602ZM771.024 303L771.024 302.5L770.587 302.5L770.528 302.933L771.024 303ZM782.16 303L782.656 303.062L782.726 302.5L782.16 302.5L782.16 303ZM768.434 413.13L767.938 413.068L767.868 413.63H768.434V413.13ZM776.963 413.13H777.463V412.63H776.963V413.13ZM776.963 425.009V425.509H777.463V425.009H776.963ZM745.989 497V497.5H746.432L746.485 497.061L745.989 497ZM754.801 425.009L755.297 425.07L755.366 424.509H754.801V425.009ZM731.539 497L731.055 497.125L731.152 497.5H731.539V497ZM712.939 425.009V424.509H712.294L712.455 425.134L712.939 425.009ZM758.477 497.062L767.45 425.071L766.458 424.947L757.485 496.938L758.477 497.062ZM776.154 496.5H757.981V497.5H776.154V496.5ZM776.654 508.5V497H775.654V508.5H776.654ZM693 509H776.154V508H693V509ZM692.5 497V508.5H693.5V497H692.5ZM719.894 496.5H693V497.5H719.894V496.5ZM699.063 425.145L719.413 497.136L720.376 496.864L700.026 424.873L699.063 425.145ZM675 425.509H699.544V424.509H675V425.509ZM674.5 413.13V425.009H675.5V413.13H674.5ZM756.255 412.63H675V413.63H756.255V412.63ZM757.02 402.758L755.758 413.069L756.751 413.191L758.013 402.88L757.02 402.758ZM761.52 369.506L757.021 402.752L758.012 402.886L762.511 369.64L761.52 369.506ZM762.015 369.073H754.69V370.073H762.015V369.073ZM755.184 369.651L763.35 317.679L762.363 317.524L754.196 369.496L755.184 369.651ZM762.857 318.102H769.048V317.102H762.857V318.102ZM770.528 302.933L768.552 317.535L769.543 317.669L771.519 303.067L770.528 302.933ZM782.16 302.5L771.024 302.5L771.024 303.5L782.16 303.5L782.16 302.5ZM768.931 413.192L782.656 303.062L781.664 302.938L767.938 413.068L768.931 413.192ZM776.963 412.63H768.434V413.63H776.963V412.63ZM777.463 425.009V413.13H776.463V425.009H777.463ZM766.954 425.509H776.963V424.509H766.954V425.509ZM746.485 497.061L755.297 425.07L754.304 424.949L745.493 496.939L746.485 497.061ZM731.539 497.5H745.989V496.5H731.539V497.5ZM712.455 425.134L731.055 497.125L732.023 496.875L713.423 424.884L712.455 425.134ZM754.801 424.509H712.939V425.509H754.801V424.509Z" fill="#356EC2"/>
<path d="M591.412 334.813L558.991 273.932C558.991 273.932 556.269 273.932 558.991 279.129C561.714 284.326 590.174 339.02 591.412 339.02H649.075V334.813H591.412Z" fill="#E995D2" stroke="#E995D2"/>
<rect width="887" height="9" fill="#ECE7E7"/>
<path d="M864 509H784.014C841.431 333.378 751.837 198.509 773.435 17.0317H812.872H864V509Z" fill="#E995D2" fill-opacity="0.81"/>
<rect x="784.09" y="1" width="7.04544" height="16.0001" fill="#C4C4C4"/>
<rect x="805.227" y="1" width="7.04544" height="16.0001" fill="#C4C4C4"/>
<rect x="825.356" y="1" width="7.04544" height="16.0001" fill="#C4C4C4"/>
<rect x="845.486" y="1" width="7.04544" height="16.0001" fill="#C4C4C4"/>
<path d="M22 509H102.517C73.4673 332 135.127 199.699 113.165 16H73.4673H22V509Z" fill="#E995D2" fill-opacity="0.76"/>
<rect width="7" height="16" transform="matrix(-1 0 0 1 101.394 0)" fill="#C4C4C4"/>
<rect width="7" height="16" transform="matrix(-1 0 0 1 80.3943 0)" fill="#C4C4C4"/>
<rect width="7" height="16" transform="matrix(-1 0 0 1 60.3943 0)" fill="#C4C4C4"/>
<rect width="7" height="16" transform="matrix(-1 0 0 1 40.3943 0)" fill="#C4C4C4"/>
</svg>
