<svg width="459" height="621" viewBox="0 0 459 621" fill="none" xmlns="http://www.w3.org/2000/svg">
<g clip-path="url(#clip0)">
<path fill-rule="evenodd" clip-rule="evenodd" d="M166.198 559.794H350.794V572.794V573.444V620.893H340.394V573.444H166.198V620.893H155.798L155.798 573.444L83.6499 399.897H97.9496L132.074 479.846L166.198 559.794Z" fill="black"/>
<path d="M350.794 559.794H351.294V559.294H350.794V559.794ZM166.198 559.794L165.738 559.99L165.868 560.294H166.198V559.794ZM350.794 620.893V621.393H351.294V620.893H350.794ZM340.394 620.893H339.894V621.393H340.394V620.893ZM340.394 573.444H340.894V572.944H340.394V573.444ZM166.198 573.444V572.944H165.698V573.444H166.198ZM166.198 620.893V621.393H166.698V620.893H166.198ZM155.798 620.893L155.298 620.893L155.298 621.393H155.798V620.893ZM155.798 573.444L156.298 573.444L156.298 573.344L156.26 573.252L155.798 573.444ZM83.6499 399.897V399.397H82.9006L83.1882 400.089L83.6499 399.897ZM97.9496 399.897L98.4095 399.701L98.2798 399.397H97.9496V399.897ZM132.074 479.846L132.534 479.649L132.534 479.649L132.074 479.846ZM350.794 559.294H166.198V560.294H350.794V559.294ZM351.294 572.794V559.794H350.294V572.794H351.294ZM350.294 572.794V573.444H351.294V572.794H350.294ZM350.294 573.444V620.893H351.294V573.444H350.294ZM350.794 620.393H340.394V621.393H350.794V620.393ZM340.894 620.893V573.444H339.894V620.893H340.894ZM166.198 573.944H340.394V572.944H166.198V573.944ZM165.698 573.444V620.893H166.698V573.444H165.698ZM166.198 620.393H155.798V621.393H166.198V620.393ZM156.298 620.893L156.298 573.444L155.298 573.444L155.298 620.893L156.298 620.893ZM83.1882 400.089L155.337 573.636L156.26 573.252L84.1116 399.706L83.1882 400.089ZM97.9496 399.397H83.6499V400.397H97.9496V399.397ZM132.534 479.649L98.4095 399.701L97.4897 400.094L131.614 480.042L132.534 479.649ZM166.658 559.598L132.534 479.649L131.614 480.042L165.738 559.99L166.658 559.598Z" fill="black"/>
<path d="M125.898 411.599C113.569 397.298 104.449 411.599 104.449 411.599L166.198 559.146H341.044C341.044 559.146 346.244 539.646 335.194 537.696C324.144 535.747 183.097 542.246 183.097 542.246C183.097 542.246 138.228 425.901 125.898 411.599Z" fill="#356EC2" stroke="#356EC2"/>
<path d="M178.202 214.544V226.971C178.202 230.324 175.903 232 171.305 232V229.192C173.747 229.192 174.967 228.452 174.967 226.971V214.544H178.202ZM180.949 228.008C180.949 225.461 182.804 224.188 186.515 224.188C187.386 224.188 188.257 224.269 189.127 224.432V223.467C189.127 222.32 188.301 221.746 186.649 221.746C185.25 221.746 183.695 221.95 181.986 222.356V219.793C183.695 219.386 185.25 219.183 186.649 219.183C190.458 219.183 192.362 220.59 192.362 223.406V232H190.482L189.335 230.853C188.22 231.618 186.991 232 185.648 232C182.515 232 180.949 230.669 180.949 228.008ZM189.127 226.629C188.314 226.466 187.443 226.385 186.515 226.385C184.961 226.385 184.184 226.914 184.184 227.972C184.184 229.111 184.835 229.681 186.137 229.681C187.211 229.681 188.208 229.347 189.127 228.68V226.629ZM193.9 219.183H197.318L200.431 228.143L203.666 219.183H207.084L201.872 232H198.795L193.9 219.183ZM208 228.008C208 225.461 209.855 224.188 213.566 224.188C214.437 224.188 215.307 224.269 216.178 224.432V223.467C216.178 222.32 215.352 221.746 213.7 221.746C212.3 221.746 210.746 221.95 209.037 222.356V219.793C210.746 219.386 212.3 219.183 213.7 219.183C217.509 219.183 219.413 220.59 219.413 223.406V232H217.533L216.386 230.853C215.271 231.618 214.042 232 212.699 232C209.566 232 208 230.669 208 228.008ZM216.178 226.629C215.364 226.466 214.494 226.385 213.566 226.385C212.012 226.385 211.234 226.914 211.234 227.972C211.234 229.111 211.885 229.681 213.188 229.681C214.262 229.681 215.259 229.347 216.178 228.68V226.629ZM222.477 231.268V228.338C224.227 228.989 226.204 229.314 228.41 229.314C231.087 229.314 232.426 228.419 232.426 226.629C232.426 225.327 231.604 224.676 229.96 224.676H227.226C223.653 224.676 221.867 223.048 221.867 219.793C221.867 216.212 224.41 214.422 229.496 214.422C231.449 214.422 233.301 214.707 235.05 215.276V218.206C233.301 217.555 231.449 217.229 229.496 217.229C226.566 217.229 225.102 218.084 225.102 219.793C225.102 221.095 225.81 221.746 227.226 221.746H229.96C233.76 221.746 235.661 223.374 235.661 226.629C235.661 230.291 233.244 232.122 228.41 232.122C226.204 232.122 224.227 231.837 222.477 231.268ZM247.562 231.634C246.505 231.878 245.406 232 244.267 232C239.709 232 237.431 229.782 237.431 225.347C237.431 221.237 239.709 219.183 244.267 219.183C245.406 219.183 246.505 219.305 247.562 219.549V222.112C246.505 221.868 245.487 221.746 244.511 221.746C241.947 221.746 240.666 222.946 240.666 225.347C240.666 228.073 241.947 229.437 244.511 229.437C245.487 229.437 246.505 229.314 247.562 229.07V231.634ZM249.699 232V219.183H252.201L252.604 220.818C253.727 219.728 254.915 219.183 256.168 219.183V221.795C254.964 221.795 253.886 222.295 252.934 223.296V232H249.699ZM261.234 214.544V217.107H258V214.544H261.234ZM261.234 219.183V232H258V219.183H261.234ZM267.533 228.655C268.339 229.095 269.206 229.314 270.133 229.314C272.062 229.314 273.026 227.959 273.026 225.25C273.026 222.946 271.96 221.795 269.828 221.795C268.909 221.795 268.144 221.852 267.533 221.966V228.655ZM264.298 219.708C265.999 219.358 267.798 219.183 269.694 219.183C274.048 219.183 276.225 221.213 276.225 225.274C276.225 229.758 274.198 232 270.146 232C269.283 232 268.412 231.797 267.533 231.39V236.639H264.298V219.708ZM278.495 217.107H280.888L281.376 219.183H284.599V221.746H281.73V227.642C281.73 228.838 282.247 229.437 283.28 229.437H284.599V232H281.718C279.569 232 278.495 230.848 278.495 228.545V217.107Z" fill="#E995D2"/>
<path d="M128.934 284.183C132.824 284.183 134.769 286.168 134.769 290.14C134.769 290.669 134.732 291.198 134.659 291.727H126.15C126.15 293.533 127.477 294.437 130.13 294.437C131.424 294.437 132.718 294.314 134.012 294.07V296.634C132.881 296.878 131.505 297 129.886 297C125.239 297 122.916 294.815 122.916 290.445C122.916 286.27 124.922 284.183 128.934 284.183ZM126.15 289.48H131.619V289.383C131.619 287.609 130.724 286.722 128.934 286.722C127.225 286.722 126.297 287.641 126.15 289.48ZM137.198 297V284.183H139.7L140.079 286.038C141.226 284.801 142.605 284.183 144.217 284.183C145.828 284.183 146.931 284.769 147.525 285.94C148.835 284.769 150.206 284.183 151.639 284.183C154.585 284.183 156.058 285.806 156.058 289.053V297H152.823V288.931C152.823 287.507 152.18 286.795 150.894 286.795C149.934 286.795 149.01 287.226 148.123 288.089V297H144.888V288.968C144.888 287.519 144.294 286.795 143.106 286.795C142.162 286.795 141.271 287.226 140.433 288.089V297H137.198ZM162.356 293.655C163.162 294.095 164.029 294.314 164.957 294.314C166.885 294.314 167.85 292.959 167.85 290.25C167.85 287.946 166.784 286.795 164.651 286.795C163.732 286.795 162.967 286.852 162.356 286.966V293.655ZM159.122 284.708C160.822 284.358 162.621 284.183 164.517 284.183C168.871 284.183 171.048 286.213 171.048 290.274C171.048 294.758 169.021 297 164.969 297C164.106 297 163.235 296.797 162.356 296.39V301.639H159.122V284.708ZM172.891 293.008C172.891 290.461 174.747 289.188 178.458 289.188C179.328 289.188 180.199 289.269 181.07 289.432V288.467C181.07 287.32 180.244 286.746 178.592 286.746C177.192 286.746 175.638 286.95 173.929 287.356V284.793C175.638 284.386 177.192 284.183 178.592 284.183C182.4 284.183 184.305 285.59 184.305 288.406V297H182.425L181.277 295.853C180.162 296.618 178.934 297 177.591 297C174.458 297 172.891 295.669 172.891 293.008ZM181.07 291.629C180.256 291.466 179.385 291.385 178.458 291.385C176.903 291.385 176.126 291.914 176.126 292.972C176.126 294.111 176.777 294.681 178.079 294.681C179.153 294.681 180.15 294.347 181.07 293.68V291.629ZM187.186 282.107H189.578L190.066 284.183H193.289V286.746H190.42V292.642C190.42 293.838 190.937 294.437 191.971 294.437H193.289V297H190.408C188.26 297 187.186 295.848 187.186 293.545V282.107ZM195.499 297V279.544H198.733V285.818C199.743 284.728 201.032 284.183 202.603 284.183C205.639 284.183 207.156 285.761 207.156 288.919V297H203.921V288.919C203.921 287.503 203.217 286.795 201.81 286.795C200.76 286.795 199.734 287.214 198.733 288.052V297H195.499ZM208.694 284.183H212.125L215.359 293.411L218.521 284.183H221.89L216.568 297.378C215.624 299.706 214.114 301.362 212.039 302.347L210.477 300.137C211.909 299.511 212.951 298.489 213.602 297.073L208.694 284.183Z" fill="#E995D2"/>
<path d="M315.916 414.008C315.916 411.461 317.771 410.188 321.482 410.188C322.353 410.188 323.223 410.269 324.094 410.432V409.467C324.094 408.32 323.268 407.746 321.616 407.746C320.216 407.746 318.662 407.95 316.953 408.356V405.793C318.662 405.386 320.216 405.183 321.616 405.183C325.425 405.183 327.329 406.59 327.329 409.406V418H325.449L324.302 416.853C323.187 417.618 321.958 418 320.615 418C317.482 418 315.916 416.669 315.916 414.008ZM324.094 412.629C323.28 412.466 322.41 412.385 321.482 412.385C319.928 412.385 319.15 412.914 319.15 413.972C319.15 415.111 319.801 415.681 321.104 415.681C322.178 415.681 323.175 415.347 324.094 414.68V412.629ZM341.929 405.183V418H339.402L339.011 416.364C337.538 417.455 335.976 418 334.324 418C331.703 418 330.393 416.45 330.393 413.349V405.183H333.628V413.264C333.628 414.68 334.246 415.388 335.483 415.388C336.533 415.388 337.603 414.969 338.694 414.13V405.183H341.929ZM344.81 403.107H347.202L347.69 405.183H350.913V407.746H348.044V413.642C348.044 414.838 348.561 415.437 349.595 415.437H350.913V418H348.032C345.884 418 344.81 416.848 344.81 414.545V403.107ZM355.747 411.542C355.747 414.22 356.785 415.559 358.86 415.559C360.935 415.559 361.973 414.22 361.973 411.542C361.973 408.93 360.935 407.624 358.86 407.624C356.785 407.624 355.747 408.93 355.747 411.542ZM352.512 411.591C352.512 407.294 354.628 405.146 358.86 405.146C363.092 405.146 365.208 407.294 365.208 411.591C365.208 415.88 363.092 418.024 358.86 418.024C354.644 418.024 352.528 415.88 352.512 411.591ZM367.649 418V405.183H370.151L370.554 407.062C371.783 405.809 373.183 405.183 374.753 405.183C377.789 405.183 379.307 406.761 379.307 409.919V418H376.072V409.919C376.072 408.503 375.368 407.795 373.96 407.795C372.91 407.795 371.885 408.214 370.884 409.052V418H367.649ZM384.995 411.542C384.995 414.22 386.033 415.559 388.108 415.559C390.183 415.559 391.221 414.22 391.221 411.542C391.221 408.93 390.183 407.624 388.108 407.624C386.033 407.624 384.995 408.93 384.995 411.542ZM381.76 411.591C381.76 407.294 383.876 405.146 388.108 405.146C392.34 405.146 394.456 407.294 394.456 411.591C394.456 415.88 392.34 418.024 388.108 418.024C383.892 418.024 381.777 415.88 381.76 411.591ZM396.897 418V405.183H399.399L399.778 407.038C400.925 405.801 402.305 405.183 403.916 405.183C405.527 405.183 406.63 405.769 407.224 406.94C408.534 405.769 409.906 405.183 411.338 405.183C414.284 405.183 415.757 406.806 415.757 410.053V418H412.522V409.931C412.522 408.507 411.879 407.795 410.593 407.795C409.633 407.795 408.709 408.226 407.822 409.089V418H404.587V409.968C404.587 408.519 403.993 407.795 402.805 407.795C401.861 407.795 400.97 408.226 400.132 409.089V418H396.897ZM421.445 411.542C421.445 414.22 422.483 415.559 424.558 415.559C426.633 415.559 427.671 414.22 427.671 411.542C427.671 408.93 426.633 407.624 424.558 407.624C422.483 407.624 421.445 408.93 421.445 411.542ZM418.21 411.591C418.21 407.294 420.326 405.146 424.558 405.146C428.79 405.146 430.906 407.294 430.906 411.591C430.906 415.88 428.79 418.024 424.558 418.024C420.343 418.024 418.227 415.88 418.21 411.591ZM444.883 405.183V418H442.356L441.965 416.364C440.492 417.455 438.93 418 437.278 418C434.657 418 433.347 416.45 433.347 413.349V405.183H436.582V413.264C436.582 414.68 437.201 415.388 438.438 415.388C439.487 415.388 440.557 414.969 441.648 414.13V405.183H444.883ZM447.947 417.39V414.704C449.371 415.274 451.015 415.559 452.878 415.559C454.27 415.559 454.966 415.111 454.966 414.216C454.966 413.361 454.498 412.934 453.562 412.934H451.243C448.639 412.934 447.336 411.652 447.336 409.089C447.336 406.403 449.237 405.061 453.037 405.061C454.648 405.061 456.166 405.305 457.59 405.793V408.479C456.166 407.909 454.62 407.624 452.952 407.624C451.202 407.624 450.327 408.072 450.327 408.967C450.327 409.821 450.836 410.249 451.853 410.249H453.928C456.777 410.249 458.201 411.53 458.201 414.094C458.201 416.779 456.386 418.122 452.756 418.122C450.974 418.122 449.371 417.878 447.947 417.39Z" fill="#E995D2"/>
<path d="M297.526 325V312.183H300.028L300.431 313.818C301.554 312.728 302.742 312.183 303.996 312.183V314.795C302.791 314.795 301.713 315.295 300.761 316.296V325H297.526ZM311.234 312.183C315.124 312.183 317.069 314.168 317.069 318.14C317.069 318.669 317.033 319.198 316.959 319.727H308.451C308.451 321.533 309.778 322.437 312.431 322.437C313.725 322.437 315.019 322.314 316.312 322.07V324.634C315.181 324.878 313.806 325 312.187 325C307.54 325 305.216 322.815 305.216 318.445C305.216 314.27 307.222 312.183 311.234 312.183ZM308.451 317.48H313.92V317.383C313.92 315.609 313.025 314.722 311.234 314.722C309.525 314.722 308.598 315.641 308.451 317.48ZM327.616 315.527C326.949 315.088 326.111 314.868 325.102 314.868C323.091 314.868 322.086 315.995 322.086 318.25C322.086 320.927 323.132 322.266 325.224 322.266C326.07 322.266 326.868 322.148 327.616 321.912V315.527ZM330.851 324.231C328.89 324.744 326.973 325 325.102 325C320.959 325 318.888 322.778 318.888 318.335C318.888 314.233 320.915 312.183 324.967 312.183C325.83 312.183 326.713 312.386 327.616 312.793V307.544H330.851V324.231ZM345.438 312.183V325H342.912L342.521 323.364C341.048 324.455 339.486 325 337.833 325C335.213 325 333.903 323.45 333.903 320.349V312.183H337.138V320.264C337.138 321.68 337.756 322.388 338.993 322.388C340.043 322.388 341.113 321.969 342.204 321.13V312.183H345.438ZM351.774 318.591L346.977 312.183H350.578L353.568 316.187L356.559 312.183H360.16L355.375 318.591L360.16 325H356.559L353.568 320.996L350.578 325H346.977L351.774 318.591Z" fill="#E995D2"/>
<path d="M24.5259 292V279.183H27.0283L27.4312 281.062C28.66 279.809 30.0597 279.183 31.6304 279.183C34.6659 279.183 36.1836 280.761 36.1836 283.919V292H32.9487V283.919C32.9487 282.503 32.2448 281.795 30.8369 281.795C29.7871 281.795 28.7617 282.214 27.7607 283.052V292H24.5259ZM41.8721 285.542C41.8721 288.22 42.9097 289.559 44.9849 289.559C47.0601 289.559 48.0977 288.22 48.0977 285.542C48.0977 282.93 47.0601 281.624 44.9849 281.624C42.9097 281.624 41.8721 282.93 41.8721 285.542ZM38.6372 285.591C38.6372 281.294 40.7531 279.146 44.9849 279.146C49.2166 279.146 51.3325 281.294 51.3325 285.591C51.3325 289.88 49.2166 292.024 44.9849 292.024C40.7694 292.024 38.6535 289.88 38.6372 285.591ZM61.8916 282.527C61.2243 282.088 60.3861 281.868 59.377 281.868C57.3669 281.868 56.3618 282.995 56.3618 285.25C56.3618 287.927 57.4076 289.266 59.499 289.266C60.3454 289.266 61.1429 289.148 61.8916 288.912V282.527ZM65.1265 291.231C63.1652 291.744 61.2487 292 59.377 292C55.2347 292 53.1636 289.778 53.1636 285.335C53.1636 281.233 55.1899 279.183 59.2427 279.183C60.1053 279.183 60.9883 279.386 61.8916 279.793V274.544H65.1265V291.231ZM73.5859 279.183C77.4759 279.183 79.4209 281.168 79.4209 285.14C79.4209 285.669 79.3843 286.198 79.311 286.727H70.8027C70.8027 288.533 72.1292 289.437 74.7822 289.437C76.0762 289.437 77.3701 289.314 78.6641 289.07V291.634C77.5329 291.878 76.1576 292 74.5381 292C69.8913 292 67.5679 289.815 67.5679 285.445C67.5679 281.27 69.5739 279.183 73.5859 279.183ZM70.8027 284.48H76.2715V284.383C76.2715 282.609 75.3763 281.722 73.5859 281.722C71.877 281.722 70.9492 282.641 70.8027 284.48ZM87.5264 274.544V286.971C87.5264 290.324 85.2274 292 80.6294 292V289.192C83.0708 289.192 84.2915 288.452 84.2915 286.971V274.544H87.5264ZM90.8833 291.268V288.338C92.633 288.989 94.6105 289.314 96.8159 289.314C99.4933 289.314 100.832 288.419 100.832 286.629C100.832 285.327 100.01 284.676 98.3662 284.676H95.6318C92.0592 284.676 90.2729 283.048 90.2729 279.793C90.2729 276.212 92.8161 274.422 97.9023 274.422C99.8555 274.422 101.707 274.707 103.457 275.276V278.206C101.707 277.555 99.8555 277.229 97.9023 277.229C94.9727 277.229 93.5078 278.084 93.5078 279.793C93.5078 281.095 94.2158 281.746 95.6318 281.746H98.3662C102.167 281.746 104.067 283.374 104.067 286.629C104.067 290.291 101.65 292.122 96.8159 292.122C94.6105 292.122 92.633 291.837 90.8833 291.268Z" fill="#6AC1D5"/>
<path d="M221.062 256.183V269H218.535L218.144 267.364C216.671 268.455 215.109 269 213.457 269C210.836 269 209.526 267.45 209.526 264.349V256.183H212.761V264.264C212.761 265.68 213.379 266.388 214.616 266.388C215.666 266.388 216.736 265.969 217.827 265.13V256.183H221.062ZM224.125 269V256.183H226.628L227.031 258.062C228.26 256.809 229.659 256.183 231.23 256.183C234.265 256.183 235.783 257.761 235.783 260.919V269H232.548V260.919C232.548 259.503 231.844 258.795 230.437 258.795C229.387 258.795 228.361 259.214 227.36 260.052V269H224.125ZM242.082 251.544V254.107H238.847V251.544H242.082ZM242.082 256.183V269H238.847V256.183H242.082ZM244.963 254.107H247.355L247.844 256.183H251.066V258.746H248.198V264.642C248.198 265.838 248.715 266.437 249.748 266.437H251.066V269H248.186C246.037 269 244.963 267.848 244.963 265.545V254.107ZM258.586 254.107H260.979L261.467 256.183H264.689V258.746H261.821V264.642C261.821 265.838 262.338 266.437 263.371 266.437H264.689V269H261.809C259.66 269 258.586 267.848 258.586 265.545V254.107ZM272.307 256.183C276.197 256.183 278.142 258.168 278.142 262.14C278.142 262.669 278.105 263.198 278.032 263.727H269.523C269.523 265.533 270.85 266.437 273.503 266.437C274.797 266.437 276.091 266.314 277.385 266.07V268.634C276.254 268.878 274.878 269 273.259 269C268.612 269 266.289 266.815 266.289 262.445C266.289 258.27 268.295 256.183 272.307 256.183ZM269.523 261.48H274.992V261.383C274.992 259.609 274.097 258.722 272.307 258.722C270.598 258.722 269.67 259.641 269.523 261.48ZM280.571 268.39V265.704C281.995 266.274 283.639 266.559 285.502 266.559C286.894 266.559 287.59 266.111 287.59 265.216C287.59 264.361 287.122 263.934 286.186 263.934H283.867C281.263 263.934 279.96 262.652 279.96 260.089C279.96 257.403 281.861 256.061 285.661 256.061C287.272 256.061 288.79 256.305 290.214 256.793V259.479C288.79 258.909 287.244 258.624 285.576 258.624C283.826 258.624 282.951 259.072 282.951 259.967C282.951 260.821 283.46 261.249 284.477 261.249H286.552C289.401 261.249 290.825 262.53 290.825 265.094C290.825 267.779 289.01 269.122 285.38 269.122C283.598 269.122 281.995 268.878 280.571 268.39ZM292.912 254.107H295.305L295.793 256.183H299.016V258.746H296.147V264.642C296.147 265.838 296.664 266.437 297.697 266.437H299.016V269H296.135C293.986 269 292.912 267.848 292.912 265.545V254.107ZM304.46 251.544V254.107H301.225V251.544H304.46ZM304.46 256.183V269H301.225V256.183H304.46ZM307.524 269V256.183H310.026L310.429 258.062C311.658 256.809 313.058 256.183 314.628 256.183C317.664 256.183 319.182 257.761 319.182 260.919V269H315.947V260.919C315.947 259.503 315.243 258.795 313.835 258.795C312.785 258.795 311.76 259.214 310.759 260.052V269H307.524ZM330.449 259.088C329.92 258.893 329.167 258.795 328.19 258.795C325.952 258.795 324.833 260.028 324.833 262.494C324.833 264.878 325.798 266.07 327.727 266.07C328.654 266.07 329.562 265.851 330.449 265.411V259.088ZM333.684 268.023C333.684 271.767 331.433 273.639 326.933 273.639C325.354 273.639 323.955 273.435 322.734 273.028V270.465C323.979 270.872 325.387 271.075 326.958 271.075C329.285 271.075 330.449 270.099 330.449 268.146C329.488 268.552 328.455 268.756 327.348 268.756C323.54 268.756 321.635 266.677 321.635 262.518C321.635 258.294 323.853 256.183 328.288 256.183C329.777 256.183 331.576 256.358 333.684 256.708V268.023Z" fill="#6AC1D5"/>
<path d="M265.343 372.107H267.735L268.224 374.183H271.446V376.746H268.578V382.642C268.578 383.838 269.094 384.437 270.128 384.437H271.446V387H268.565C266.417 387 265.343 385.848 265.343 383.545V372.107ZM279.063 374.183C282.953 374.183 284.898 376.168 284.898 380.14C284.898 380.669 284.862 381.198 284.789 381.727H276.28C276.28 383.533 277.607 384.437 280.26 384.437C281.554 384.437 282.848 384.314 284.142 384.07V386.634C283.01 386.878 281.635 387 280.016 387C275.369 387 273.045 384.815 273.045 380.445C273.045 376.27 275.051 374.183 279.063 374.183ZM276.28 379.48H281.749V379.383C281.749 377.609 280.854 376.722 279.063 376.722C277.354 376.722 276.427 377.641 276.28 379.48ZM286.717 383.008C286.717 380.461 288.573 379.188 292.284 379.188C293.154 379.188 294.025 379.269 294.896 379.432V378.467C294.896 377.32 294.07 376.746 292.418 376.746C291.018 376.746 289.464 376.95 287.755 377.356V374.793C289.464 374.386 291.018 374.183 292.418 374.183C296.227 374.183 298.131 375.59 298.131 378.406V387H296.251L295.104 385.853C293.989 386.618 292.76 387 291.417 387C288.284 387 286.717 385.669 286.717 383.008ZM294.896 381.629C294.082 381.466 293.211 381.385 292.284 381.385C290.729 381.385 289.952 381.914 289.952 382.972C289.952 384.111 290.603 384.681 291.905 384.681C292.979 384.681 293.976 384.347 294.896 383.68V381.629ZM301.195 387V374.183H303.697L304.076 376.038C305.223 374.801 306.603 374.183 308.214 374.183C309.825 374.183 310.928 374.769 311.522 375.94C312.832 374.769 314.203 374.183 315.636 374.183C318.582 374.183 320.055 375.806 320.055 379.053V387H316.82V378.931C316.82 377.507 316.177 376.795 314.891 376.795C313.931 376.795 313.007 377.226 312.12 378.089V387H308.885V378.968C308.885 377.519 308.291 376.795 307.103 376.795C306.159 376.795 305.268 377.226 304.43 378.089V387H301.195ZM328.917 379.31V381.873H322.813V379.31H328.917ZM330.565 374.183H333.824L335.484 383.106L338.451 374.183H341.222L344.42 383.106L345.86 374.183H349.229L345.885 387H342.845L339.83 377.906L336.778 387H333.69L330.565 374.183ZM353.819 380.542C353.819 383.22 354.857 384.559 356.932 384.559C359.007 384.559 360.045 383.22 360.045 380.542C360.045 377.93 359.007 376.624 356.932 376.624C354.857 376.624 353.819 377.93 353.819 380.542ZM350.584 380.591C350.584 376.294 352.7 374.146 356.932 374.146C361.164 374.146 363.28 376.294 363.28 380.591C363.28 384.88 361.164 387.024 356.932 387.024C352.717 387.024 350.601 384.88 350.584 380.591ZM365.721 387V374.183H368.224L368.626 375.818C369.75 374.728 370.938 374.183 372.191 374.183V376.795C370.986 376.795 369.908 377.295 368.956 378.296V387H365.721ZM374.022 387V369.544H377.257V375.184C378.583 374.516 379.979 374.183 381.444 374.183C384.715 374.183 386.351 375.416 386.351 377.881C386.351 379.672 385.212 381.071 382.933 382.081L386.913 387H382.958L379.613 382.422V380.921C381.948 380.424 383.116 379.611 383.116 378.479C383.116 377.324 382.343 376.746 380.797 376.746C379.715 376.746 378.535 377.088 377.257 377.771V387H374.022Z" fill="#6AC1D5"/>
<path d="M59.7471 328.268C58.2415 328.837 56.5326 329.122 54.6201 329.122C48.3538 329.122 45.2207 326.091 45.2207 320.028C45.2207 314.291 48.3538 311.422 54.6201 311.422C56.5326 311.422 58.2415 311.707 59.7471 312.276V315.206C58.2415 314.555 56.6139 314.229 54.8643 314.229C50.6732 314.229 48.5776 316.162 48.5776 320.028C48.5776 324.219 50.6732 326.314 54.8643 326.314C56.6139 326.314 58.2415 325.989 59.7471 325.338V328.268ZM62.4937 328.268V325.338C64.2433 325.989 66.2209 326.314 68.4263 326.314C71.1037 326.314 72.4424 325.419 72.4424 323.629C72.4424 322.327 71.6204 321.676 69.9766 321.676H67.2422C63.6696 321.676 61.8833 320.048 61.8833 316.793C61.8833 313.212 64.4264 311.422 69.5127 311.422C71.4658 311.422 73.3172 311.707 75.0669 312.276V315.206C73.3172 314.555 71.4658 314.229 69.5127 314.229C66.583 314.229 65.1182 315.084 65.1182 316.793C65.1182 318.095 65.8262 318.746 67.2422 318.746H69.9766C73.777 318.746 75.6772 320.374 75.6772 323.629C75.6772 327.291 73.2603 329.122 68.4263 329.122C66.2209 329.122 64.2433 328.837 62.4937 328.268ZM78.1187 328.268V325.338C79.8683 325.989 81.8459 326.314 84.0513 326.314C86.7287 326.314 88.0674 325.419 88.0674 323.629C88.0674 322.327 87.2454 321.676 85.6016 321.676H82.8672C79.2946 321.676 77.5083 320.048 77.5083 316.793C77.5083 313.212 80.0514 311.422 85.1377 311.422C87.0908 311.422 88.9422 311.707 90.6919 312.276V315.206C88.9422 314.555 87.0908 314.229 85.1377 314.229C82.208 314.229 80.7432 315.084 80.7432 316.793C80.7432 318.095 81.4512 318.746 82.8672 318.746H85.6016C89.402 318.746 91.3022 320.374 91.3022 323.629C91.3022 327.291 88.8853 329.122 84.0513 329.122C81.8459 329.122 79.8683 328.837 78.1187 328.268Z" fill="#9CC9F2"/>
<path d="M94.8311 256.976V239.544H102.766C106.33 239.544 108.112 241.102 108.112 244.219C108.112 246.327 106.725 248.073 103.95 249.456L109.479 257H105.402L100.092 249.395V247.918C103.185 247.389 104.731 246.189 104.731 244.317C104.731 243.031 104.007 242.388 102.558 242.388H98.127V256.976H94.8311ZM116.12 244.183C120.01 244.183 121.955 246.168 121.955 250.14C121.955 250.669 121.918 251.198 121.845 251.727H113.337C113.337 253.533 114.663 254.437 117.316 254.437C118.61 254.437 119.904 254.314 121.198 254.07V256.634C120.067 256.878 118.692 257 117.072 257C112.425 257 110.102 254.815 110.102 250.445C110.102 246.27 112.108 244.183 116.12 244.183ZM113.337 249.48H118.806V249.383C118.806 247.609 117.91 246.722 116.12 246.722C114.411 246.722 113.483 247.641 113.337 249.48ZM123.774 253.008C123.774 250.461 125.629 249.188 129.34 249.188C130.211 249.188 131.082 249.269 131.953 249.432V248.467C131.953 247.32 131.127 246.746 129.475 246.746C128.075 246.746 126.521 246.95 124.812 247.356V244.793C126.521 244.386 128.075 244.183 129.475 244.183C133.283 244.183 135.188 245.59 135.188 248.406V257H133.308L132.16 255.853C131.045 256.618 129.816 257 128.474 257C125.34 257 123.774 255.669 123.774 253.008ZM131.953 251.629C131.139 251.466 130.268 251.385 129.34 251.385C127.786 251.385 127.009 251.914 127.009 252.972C127.009 254.111 127.66 254.681 128.962 254.681C130.036 254.681 131.033 254.347 131.953 253.68V251.629ZM147.712 256.634C146.654 256.878 145.555 257 144.416 257C139.859 257 137.58 254.782 137.58 250.347C137.58 246.237 139.859 244.183 144.416 244.183C145.555 244.183 146.654 244.305 147.712 244.549V247.112C146.654 246.868 145.637 246.746 144.66 246.746C142.097 246.746 140.815 247.946 140.815 250.347C140.815 253.073 142.097 254.437 144.66 254.437C145.637 254.437 146.654 254.314 147.712 254.07V256.634ZM149.665 242.107H152.058L152.546 244.183H155.769V246.746H152.9V252.642C152.9 253.838 153.417 254.437 154.45 254.437H155.769V257H152.888C150.739 257 149.665 255.848 149.665 253.545V242.107Z" fill="#9CC9F2"/>
<path d="M295.986 356.634C294.928 356.878 293.83 357 292.69 357C288.133 357 285.854 354.782 285.854 350.347C285.854 346.237 288.133 344.183 292.69 344.183C293.83 344.183 294.928 344.305 295.986 344.549V347.112C294.928 346.868 293.911 346.746 292.935 346.746C290.371 346.746 289.089 347.946 289.089 350.347C289.089 353.073 290.371 354.437 292.935 354.437C293.911 354.437 294.928 354.314 295.986 354.07V356.634ZM300.747 350.542C300.747 353.22 301.785 354.559 303.86 354.559C305.935 354.559 306.973 353.22 306.973 350.542C306.973 347.93 305.935 346.624 303.86 346.624C301.785 346.624 300.747 347.93 300.747 350.542ZM297.512 350.591C297.512 346.294 299.628 344.146 303.86 344.146C308.092 344.146 310.208 346.294 310.208 350.591C310.208 354.88 308.092 357.024 303.86 357.024C299.644 357.024 297.528 354.88 297.512 350.591ZM312.649 357V344.183H315.151L315.53 346.038C316.677 344.801 318.057 344.183 319.668 344.183C321.279 344.183 322.382 344.769 322.976 345.94C324.286 344.769 325.658 344.183 327.09 344.183C330.036 344.183 331.509 345.806 331.509 349.053V357H328.274V348.931C328.274 347.507 327.631 346.795 326.345 346.795C325.385 346.795 324.461 347.226 323.574 348.089V357H320.339V348.968C320.339 347.519 319.745 346.795 318.557 346.795C317.613 346.795 316.722 347.226 315.884 348.089V357H312.649ZM334.573 357V344.183H337.075L337.454 346.038C338.601 344.801 339.98 344.183 341.592 344.183C343.203 344.183 344.306 344.769 344.9 345.94C346.21 344.769 347.581 344.183 349.014 344.183C351.96 344.183 353.433 345.806 353.433 349.053V357H350.198V348.931C350.198 347.507 349.555 346.795 348.269 346.795C347.309 346.795 346.385 347.226 345.498 348.089V357H342.263V348.968C342.263 347.519 341.669 346.795 340.481 346.795C339.537 346.795 338.646 347.226 337.808 348.089V357H334.573ZM359.731 339.544V342.107H356.497V339.544H359.731ZM359.731 344.183V357H356.497V344.183H359.731ZM362.612 342.107H365.005L365.493 344.183H368.716V346.746H365.847V352.642C365.847 353.838 366.364 354.437 367.397 354.437H368.716V357H365.835C363.687 357 362.612 355.848 362.612 353.545V342.107ZM370.925 357V344.183H373.428L373.806 346.038C374.954 344.801 376.333 344.183 377.944 344.183C379.556 344.183 380.658 344.769 381.252 345.94C382.563 344.769 383.934 344.183 385.366 344.183C388.312 344.183 389.785 345.806 389.785 349.053V357H386.55V348.931C386.55 347.507 385.907 346.795 384.622 346.795C383.661 346.795 382.738 347.226 381.851 348.089V357H378.616V348.968C378.616 347.519 378.022 346.795 376.833 346.795C375.889 346.795 374.998 347.226 374.16 348.089V357H370.925ZM398.257 344.183C402.147 344.183 404.092 346.168 404.092 350.14C404.092 350.669 404.055 351.198 403.982 351.727H395.474C395.474 353.533 396.8 354.437 399.453 354.437C400.747 354.437 402.041 354.314 403.335 354.07V356.634C402.204 356.878 400.828 357 399.209 357C394.562 357 392.239 354.815 392.239 350.445C392.239 346.27 394.245 344.183 398.257 344.183ZM395.474 349.48H400.942V349.383C400.942 347.609 400.047 346.722 398.257 346.722C396.548 346.722 395.62 347.641 395.474 349.48ZM406.521 357V344.183H409.023L409.426 346.062C410.655 344.809 412.055 344.183 413.625 344.183C416.661 344.183 418.179 345.761 418.179 348.919V357H414.944V348.919C414.944 347.503 414.24 346.795 412.832 346.795C411.782 346.795 410.757 347.214 409.756 348.052V357H406.521ZM421.06 342.107H423.452L423.94 344.183H427.163V346.746H424.294V352.642C424.294 353.838 424.811 354.437 425.845 354.437H427.163V357H424.282C422.134 357 421.06 355.848 421.06 353.545V342.107Z" fill="#9CC9F2"/>
<path d="M246.761 302.655C247.566 303.095 248.433 303.314 249.361 303.314C251.29 303.314 252.254 301.959 252.254 299.25C252.254 296.946 251.188 295.795 249.056 295.795C248.136 295.795 247.371 295.852 246.761 295.966V302.655ZM243.526 293.708C245.227 293.358 247.025 293.183 248.921 293.183C253.275 293.183 255.452 295.213 255.452 299.274C255.452 303.758 253.426 306 249.373 306C248.51 306 247.64 305.797 246.761 305.39V310.639H243.526V293.708ZM269.441 293.183V306H266.915L266.524 304.364C265.051 305.455 263.488 306 261.836 306C259.216 306 257.906 304.45 257.906 301.349V293.183H261.141V301.264C261.141 302.68 261.759 303.388 262.996 303.388C264.046 303.388 265.116 302.969 266.207 302.13V293.183H269.441ZM280.708 296.088C280.18 295.893 279.427 295.795 278.45 295.795C276.212 295.795 275.093 297.028 275.093 299.494C275.093 301.878 276.058 303.07 277.986 303.07C278.914 303.07 279.821 302.851 280.708 302.411V296.088ZM283.943 305.023C283.943 308.767 281.693 310.639 277.193 310.639C275.614 310.639 274.214 310.435 272.994 310.028V307.465C274.239 307.872 275.647 308.075 277.217 308.075C279.545 308.075 280.708 307.099 280.708 305.146C279.748 305.552 278.715 305.756 277.608 305.756C273.799 305.756 271.895 303.677 271.895 299.518C271.895 295.294 274.113 293.183 278.548 293.183C280.037 293.183 281.836 293.358 283.943 293.708V305.023Z" fill="#9CC9F2"/>
<path d="M338.457 222.544L330.803 240H327.324L320 222.544H323.845L329.253 235.911L334.648 222.544H338.457ZM351.519 227.183V240H348.992L348.601 238.364C347.128 239.455 345.566 240 343.914 240C341.293 240 339.983 238.45 339.983 235.349V227.183H343.218V235.264C343.218 236.68 343.836 237.388 345.073 237.388C346.123 237.388 347.193 236.969 348.284 236.13V227.183H351.519ZM359.99 227.183C363.88 227.183 365.825 229.168 365.825 233.14C365.825 233.669 365.789 234.198 365.715 234.727H357.207C357.207 236.533 358.534 237.437 361.187 237.437C362.48 237.437 363.774 237.314 365.068 237.07V239.634C363.937 239.878 362.562 240 360.942 240C356.296 240 353.972 237.815 353.972 233.445C353.972 229.27 355.978 227.183 359.99 227.183ZM357.207 232.48H362.676V232.383C362.676 230.609 361.781 229.722 359.99 229.722C358.281 229.722 357.354 230.641 357.207 232.48Z" fill="#9CC9F2"/>
<path d="M1.52588 357V344.183H4.02832L4.40674 346.038C5.5542 344.801 6.93359 344.183 8.54492 344.183C10.1562 344.183 11.259 344.769 11.853 345.94C13.1632 344.769 14.5345 344.183 15.9668 344.183C18.9128 344.183 20.3857 345.806 20.3857 349.053V357H17.1509V348.931C17.1509 347.507 16.508 346.795 15.2222 346.795C14.2619 346.795 13.3382 347.226 12.4512 348.089V357H9.21631V348.968C9.21631 347.519 8.62223 346.795 7.43408 346.795C6.49007 346.795 5.59896 347.226 4.76074 348.089V357H1.52588ZM21.9238 344.183H25.3418L28.4546 353.143L31.6895 344.183H35.1074L29.895 357H26.8188L21.9238 344.183ZM35.1074 344.183H38.5254L41.6382 353.143L44.873 344.183H48.291L43.0786 357H40.0024L35.1074 344.183ZM49.8169 357V344.183H52.3193L52.6978 346.038C53.8452 344.801 55.2246 344.183 56.8359 344.183C58.4473 344.183 59.55 344.769 60.144 345.94C61.4543 344.769 62.8255 344.183 64.2578 344.183C67.2038 344.183 68.6768 345.806 68.6768 349.053V357H65.4419V348.931C65.4419 347.507 64.799 346.795 63.5132 346.795C62.5529 346.795 61.6292 347.226 60.7422 348.089V357H57.5073V348.968C57.5073 347.519 56.9132 346.795 55.7251 346.795C54.7811 346.795 53.89 347.226 53.0518 348.089V357H49.8169Z" fill="#E995D2"/>
</g>
<defs>
<clipPath id="clip0">
<rect width="459" height="621" fill="white"/>
</clipPath>
</defs>
</svg>
