<svg width="459" height="621" viewBox="0 0 459 621" fill="none" xmlns="http://www.w3.org/2000/svg">
<g clip-path="url(#clip0)">
<path fill-rule="evenodd" clip-rule="evenodd" d="M166.198 559.794H350.794V572.794V573.444V620.893H340.394V573.444H166.198V620.893H155.798L155.798 573.444L83.6499 399.897H97.9496L132.074 479.846L166.198 559.794Z" fill="black"/>
<path d="M350.794 559.794H351.294V559.294H350.794V559.794ZM166.198 559.794L165.738 559.99L165.868 560.294H166.198V559.794ZM350.794 620.893V621.393H351.294V620.893H350.794ZM340.394 620.893H339.894V621.393H340.394V620.893ZM340.394 573.444H340.894V572.944H340.394V573.444ZM166.198 573.444V572.944H165.698V573.444H166.198ZM166.198 620.893V621.393H166.698V620.893H166.198ZM155.798 620.893L155.298 620.893L155.298 621.393H155.798V620.893ZM155.798 573.444L156.298 573.444L156.298 573.344L156.26 573.252L155.798 573.444ZM83.6499 399.897V399.397H82.9006L83.1882 400.089L83.6499 399.897ZM97.9496 399.897L98.4095 399.701L98.2798 399.397H97.9496V399.897ZM132.074 479.846L132.534 479.649L132.534 479.649L132.074 479.846ZM350.794 559.294H166.198V560.294H350.794V559.294ZM351.294 572.794V559.794H350.294V572.794H351.294ZM350.294 572.794V573.444H351.294V572.794H350.294ZM350.294 573.444V620.893H351.294V573.444H350.294ZM350.794 620.393H340.394V621.393H350.794V620.393ZM340.894 620.893V573.444H339.894V620.893H340.894ZM166.198 573.944H340.394V572.944H166.198V573.944ZM165.698 573.444V620.893H166.698V573.444H165.698ZM166.198 620.393H155.798V621.393H166.198V620.393ZM156.298 620.893L156.298 573.444L155.298 573.444L155.298 620.893L156.298 620.893ZM83.1882 400.089L155.337 573.636L156.26 573.252L84.1116 399.706L83.1882 400.089ZM97.9496 399.397H83.6499V400.397H97.9496V399.397ZM132.534 479.649L98.4095 399.701L97.4897 400.094L131.614 480.042L132.534 479.649ZM166.658 559.598L132.534 479.649L131.614 480.042L165.738 559.99L166.658 559.598Z" fill="black"/>
<path d="M125.898 411.599C113.569 397.298 104.449 411.599 104.449 411.599L166.197 559.146H341.044C341.044 559.146 346.244 539.646 335.194 537.696C324.144 535.747 183.097 542.246 183.097 542.246C183.097 542.246 138.228 425.901 125.898 411.599Z" fill="#356EC2" stroke="#356EC2"/>
<path d="M138.05 190.337V200.775C138.05 203.592 136.119 205 132.256 205V202.642C134.307 202.642 135.333 202.02 135.333 200.775V190.337H138.05ZM140.357 201.647C140.357 199.507 141.916 198.438 145.033 198.438C145.764 198.438 146.496 198.506 147.227 198.643V197.833C147.227 196.869 146.533 196.387 145.146 196.387C143.97 196.387 142.664 196.558 141.229 196.899V194.746C142.664 194.404 143.97 194.233 145.146 194.233C148.345 194.233 149.944 195.416 149.944 197.781V205H148.365L147.401 204.036C146.465 204.679 145.433 205 144.305 205C141.673 205 140.357 203.882 140.357 201.647ZM147.227 200.488C146.543 200.352 145.812 200.283 145.033 200.283C143.727 200.283 143.074 200.728 143.074 201.616C143.074 202.573 143.621 203.052 144.715 203.052C145.617 203.052 146.455 202.771 147.227 202.211V200.488ZM151.236 194.233H154.107L156.722 201.76L159.439 194.233H162.311L157.932 205H155.348L151.236 194.233ZM163.08 201.647C163.08 199.507 164.638 198.438 167.755 198.438C168.487 198.438 169.218 198.506 169.95 198.643V197.833C169.95 196.869 169.256 196.387 167.868 196.387C166.692 196.387 165.387 196.558 163.951 196.899V194.746C165.387 194.404 166.692 194.233 167.868 194.233C171.067 194.233 172.667 195.416 172.667 197.781V205H171.088L170.124 204.036C169.188 204.679 168.155 205 167.027 205C164.396 205 163.08 203.882 163.08 201.647ZM169.95 200.488C169.266 200.352 168.535 200.283 167.755 200.283C166.45 200.283 165.797 200.728 165.797 201.616C165.797 202.573 166.344 203.052 167.438 203.052C168.34 203.052 169.177 202.771 169.95 202.211V200.488ZM175.241 204.385V201.924C176.71 202.471 178.372 202.744 180.224 202.744C182.473 202.744 183.598 201.992 183.598 200.488C183.598 199.395 182.907 198.848 181.526 198.848H179.229C176.229 198.848 174.728 197.48 174.728 194.746C174.728 191.738 176.864 190.234 181.137 190.234C182.777 190.234 184.333 190.474 185.802 190.952V193.413C184.333 192.866 182.777 192.593 181.137 192.593C178.676 192.593 177.445 193.311 177.445 194.746C177.445 195.84 178.04 196.387 179.229 196.387H181.526C184.719 196.387 186.315 197.754 186.315 200.488C186.315 203.564 184.285 205.103 180.224 205.103C178.372 205.103 176.71 204.863 175.241 204.385ZM196.312 204.692C195.424 204.897 194.501 205 193.544 205C189.716 205 187.802 203.137 187.802 199.412C187.802 195.959 189.716 194.233 193.544 194.233C194.501 194.233 195.424 194.336 196.312 194.541V196.694C195.424 196.489 194.569 196.387 193.749 196.387C191.596 196.387 190.519 197.395 190.519 199.412C190.519 201.702 191.596 202.847 193.749 202.847C194.569 202.847 195.424 202.744 196.312 202.539V204.692ZM198.107 205V194.233H200.209L200.547 195.607C201.491 194.691 202.489 194.233 203.542 194.233V196.428C202.53 196.428 201.624 196.848 200.824 197.689V205H198.107ZM207.797 190.337V192.49H205.08V190.337H207.797ZM207.797 194.233V205H205.08V194.233H207.797ZM213.088 202.19C213.765 202.56 214.493 202.744 215.272 202.744C216.892 202.744 217.702 201.606 217.702 199.33C217.702 197.395 216.807 196.428 215.016 196.428C214.243 196.428 213.601 196.476 213.088 196.571V202.19ZM210.371 194.674C211.799 194.38 213.31 194.233 214.903 194.233C218.56 194.233 220.389 195.939 220.389 199.35C220.389 203.117 218.687 205 215.282 205C214.558 205 213.826 204.829 213.088 204.487V208.896H210.371V194.674ZM222.296 192.49H224.306L224.716 194.233H227.423V196.387H225.013V201.339C225.013 202.344 225.447 202.847 226.315 202.847H227.423V205H225.003C223.198 205 222.296 204.033 222.296 202.098V192.49Z" fill="#E995D2"/>
<path d="M87.8242 247.233C91.0918 247.233 92.7256 248.901 92.7256 252.237C92.7256 252.682 92.6948 253.126 92.6333 253.57H85.4863C85.4863 255.088 86.6006 255.847 88.8291 255.847C89.916 255.847 91.0029 255.744 92.0898 255.539V257.692C91.1396 257.897 89.9844 258 88.624 258C84.7207 258 82.769 256.165 82.769 252.494C82.769 248.987 84.4541 247.233 87.8242 247.233ZM85.4863 251.684H90.0801V251.602C90.0801 250.111 89.3281 249.366 87.8242 249.366C86.3887 249.366 85.6094 250.139 85.4863 251.684ZM94.7661 258V247.233H96.8682L97.186 248.792C98.1499 247.753 99.3086 247.233 100.662 247.233C102.016 247.233 102.942 247.726 103.441 248.71C104.542 247.726 105.693 247.233 106.896 247.233C109.371 247.233 110.608 248.597 110.608 251.325V258H107.891V251.222C107.891 250.026 107.351 249.428 106.271 249.428C105.464 249.428 104.688 249.79 103.943 250.515V258H101.226V251.253C101.226 250.036 100.727 249.428 99.729 249.428C98.936 249.428 98.1875 249.79 97.4834 250.515V258H94.7661ZM115.899 255.19C116.576 255.56 117.304 255.744 118.083 255.744C119.704 255.744 120.514 254.606 120.514 252.33C120.514 250.395 119.618 249.428 117.827 249.428C117.055 249.428 116.412 249.476 115.899 249.571V255.19ZM113.182 247.674C114.611 247.38 116.122 247.233 117.714 247.233C121.372 247.233 123.2 248.939 123.2 252.35C123.2 256.117 121.498 258 118.094 258C117.369 258 116.638 257.829 115.899 257.487V261.896H113.182V247.674ZM124.749 254.647C124.749 252.507 126.307 251.438 129.424 251.438C130.156 251.438 130.887 251.506 131.619 251.643V250.833C131.619 249.869 130.925 249.387 129.537 249.387C128.361 249.387 127.056 249.558 125.62 249.899V247.746C127.056 247.404 128.361 247.233 129.537 247.233C132.736 247.233 134.336 248.416 134.336 250.781V258H132.757L131.793 257.036C130.856 257.679 129.824 258 128.696 258C126.064 258 124.749 256.882 124.749 254.647ZM131.619 253.488C130.935 253.352 130.204 253.283 129.424 253.283C128.119 253.283 127.466 253.728 127.466 254.616C127.466 255.573 128.013 256.052 129.106 256.052C130.009 256.052 130.846 255.771 131.619 255.211V253.488ZM136.756 245.49H138.766L139.176 247.233H141.883V249.387H139.473V254.339C139.473 255.344 139.907 255.847 140.775 255.847H141.883V258H139.463C137.658 258 136.756 257.033 136.756 255.098V245.49ZM143.739 258V243.337H146.456V248.607C147.304 247.691 148.387 247.233 149.707 247.233C152.256 247.233 153.531 248.56 153.531 251.212V258H150.814V251.212C150.814 250.022 150.223 249.428 149.04 249.428C148.158 249.428 147.297 249.78 146.456 250.484V258H143.739ZM154.823 247.233H157.705L160.422 254.985L163.078 247.233H165.908L161.437 258.318C160.644 260.273 159.376 261.664 157.633 262.491L156.32 260.635C157.523 260.109 158.398 259.251 158.945 258.062L154.823 247.233Z" fill="#E995D2"/>
<path d="M250.538 262V247.337H253.255V253.387H260.484V247.337H263.202V262H260.484V255.745H253.255V262H250.538ZM275.875 247.337V249.695H271.671V262H268.954V249.695H264.75V247.337H275.875ZM277.424 262V247.337H280.244L285.217 258.462L290.087 247.337H292.805V262H290.292V251.787L286.314 262H283.997L279.936 251.787V262H277.424ZM298.598 247.337V259.642H304.422V262H295.881V247.337H298.598Z" fill="#E995D2"/>
<path d="M273.282 289V278.233H275.384L275.722 279.812C276.754 278.76 277.93 278.233 279.25 278.233C281.799 278.233 283.074 279.56 283.074 282.212V289H280.357V282.212C280.357 281.022 279.766 280.428 278.583 280.428C277.701 280.428 276.84 280.78 275.999 281.484V289H273.282ZM287.853 283.576C287.853 285.825 288.724 286.949 290.467 286.949C292.21 286.949 293.082 285.825 293.082 283.576C293.082 281.381 292.21 280.284 290.467 280.284C288.724 280.284 287.853 281.381 287.853 283.576ZM285.135 283.617C285.135 280.007 286.913 278.203 290.467 278.203C294.022 278.203 295.799 280.007 295.799 283.617C295.799 287.219 294.022 289.021 290.467 289.021C286.926 289.021 285.149 287.219 285.135 283.617ZM304.669 281.043C304.108 280.674 303.404 280.489 302.557 280.489C300.868 280.489 300.024 281.436 300.024 283.33C300.024 285.579 300.902 286.703 302.659 286.703C303.37 286.703 304.04 286.604 304.669 286.406V281.043ZM307.386 288.354C305.739 288.785 304.129 289 302.557 289C299.077 289 297.337 287.134 297.337 283.401C297.337 279.956 299.04 278.233 302.444 278.233C303.168 278.233 303.91 278.404 304.669 278.746V274.337H307.386V288.354ZM314.492 278.233C317.76 278.233 319.394 279.901 319.394 283.237C319.394 283.682 319.363 284.126 319.301 284.57H312.154C312.154 286.088 313.269 286.847 315.497 286.847C316.584 286.847 317.671 286.744 318.758 286.539V288.692C317.808 288.897 316.652 289 315.292 289C311.389 289 309.437 287.165 309.437 283.494C309.437 279.987 311.122 278.233 314.492 278.233ZM312.154 282.684H316.748V282.602C316.748 281.111 315.996 280.366 314.492 280.366C313.057 280.366 312.277 281.139 312.154 282.684ZM326.202 274.337V284.775C326.202 287.592 324.271 289 320.409 289V286.642C322.459 286.642 323.485 286.02 323.485 284.775V274.337H326.202ZM329.022 288.385V285.924C330.492 286.471 332.153 286.744 334.005 286.744C336.254 286.744 337.379 285.992 337.379 284.488C337.379 283.395 336.688 282.848 335.308 282.848H333.011C330.01 282.848 328.509 281.48 328.509 278.746C328.509 275.738 330.646 274.234 334.918 274.234C336.559 274.234 338.114 274.474 339.583 274.952V277.413C338.114 276.866 336.559 276.593 334.918 276.593C332.457 276.593 331.227 277.311 331.227 278.746C331.227 279.84 331.821 280.387 333.011 280.387H335.308C338.5 280.387 340.096 281.754 340.096 284.488C340.096 287.564 338.066 289.103 334.005 289.103C332.153 289.103 330.492 288.863 329.022 288.385Z" fill="#6AC1D5"/>
<path d="M202.972 220.233V231H200.849L200.521 229.626C199.284 230.542 197.971 231 196.583 231C194.382 231 193.282 229.698 193.282 227.093V220.233H195.999V227.021C195.999 228.211 196.519 228.806 197.558 228.806C198.439 228.806 199.338 228.454 200.254 227.75V220.233H202.972ZM205.545 231V220.233H207.647L207.986 221.812C209.018 220.76 210.194 220.233 211.513 220.233C214.063 220.233 215.338 221.56 215.338 224.212V231H212.621V224.212C212.621 223.022 212.029 222.428 210.847 222.428C209.965 222.428 209.104 222.78 208.263 223.484V231H205.545ZM220.629 216.337V218.49H217.912V216.337H220.629ZM220.629 220.233V231H217.912V220.233H220.629ZM223.049 218.49H225.059L225.469 220.233H228.176V222.387H225.766V227.339C225.766 228.344 226.2 228.847 227.068 228.847H228.176V231H225.756C223.951 231 223.049 230.033 223.049 228.098V218.49ZM234.492 218.49H236.502L236.912 220.233H239.619V222.387H237.209V227.339C237.209 228.344 237.644 228.847 238.512 228.847H239.619V231H237.199C235.395 231 234.492 230.033 234.492 228.098V218.49ZM246.018 220.233C249.285 220.233 250.919 221.901 250.919 225.237C250.919 225.682 250.888 226.126 250.827 226.57H243.68C243.68 228.088 244.794 228.847 247.022 228.847C248.109 228.847 249.196 228.744 250.283 228.539V230.692C249.333 230.897 248.178 231 246.817 231C242.914 231 240.962 229.165 240.962 225.494C240.962 221.987 242.647 220.233 246.018 220.233ZM243.68 224.684H248.273V224.602C248.273 223.111 247.521 222.366 246.018 222.366C244.582 222.366 243.803 223.139 243.68 224.684ZM252.959 230.487V228.231C254.156 228.71 255.537 228.949 257.102 228.949C258.271 228.949 258.855 228.573 258.855 227.821C258.855 227.104 258.462 226.745 257.676 226.745H255.728C253.541 226.745 252.447 225.668 252.447 223.515C252.447 221.259 254.043 220.131 257.235 220.131C258.589 220.131 259.864 220.336 261.06 220.746V223.002C259.864 222.523 258.565 222.284 257.164 222.284C255.694 222.284 254.959 222.66 254.959 223.412C254.959 224.13 255.386 224.489 256.241 224.489H257.984C260.376 224.489 261.573 225.565 261.573 227.719C261.573 229.975 260.048 231.103 257 231.103C255.502 231.103 254.156 230.897 252.959 230.487ZM263.326 218.49H265.336L265.746 220.233H268.453V222.387H266.043V227.339C266.043 228.344 266.478 228.847 267.346 228.847H268.453V231H266.033C264.229 231 263.326 230.033 263.326 228.098V218.49ZM273.026 216.337V218.49H270.309V216.337H273.026ZM273.026 220.233V231H270.309V220.233H273.026ZM275.6 231V220.233H277.702L278.041 221.812C279.073 220.76 280.249 220.233 281.568 220.233C284.118 220.233 285.393 221.56 285.393 224.212V231H282.675V224.212C282.675 223.022 282.084 222.428 280.901 222.428C280.02 222.428 279.158 222.78 278.317 223.484V231H275.6ZM294.857 222.674C294.413 222.51 293.78 222.428 292.96 222.428C291.08 222.428 290.14 223.463 290.14 225.535C290.14 227.538 290.95 228.539 292.57 228.539C293.35 228.539 294.112 228.354 294.857 227.985V222.674ZM297.574 230.18C297.574 233.324 295.684 234.896 291.904 234.896C290.578 234.896 289.402 234.726 288.376 234.384V232.23C289.422 232.572 290.605 232.743 291.924 232.743C293.879 232.743 294.857 231.923 294.857 230.282C294.05 230.624 293.182 230.795 292.252 230.795C289.053 230.795 287.454 229.048 287.454 225.555C287.454 222.007 289.316 220.233 293.042 220.233C294.293 220.233 295.804 220.38 297.574 220.674V230.18Z" fill="#6AC1D5"/>
<path d="M276.128 337.49H278.138L278.548 339.233H281.255V341.387H278.845V346.339C278.845 347.344 279.279 347.847 280.147 347.847H281.255V350H278.835C277.03 350 276.128 349.033 276.128 347.098V337.49ZM287.653 339.233C290.921 339.233 292.555 340.901 292.555 344.237C292.555 344.682 292.524 345.126 292.462 345.57H285.315C285.315 347.088 286.43 347.847 288.658 347.847C289.745 347.847 290.832 347.744 291.919 347.539V349.692C290.969 349.897 289.813 350 288.453 350C284.55 350 282.598 348.165 282.598 344.494C282.598 340.987 284.283 339.233 287.653 339.233ZM285.315 343.684H289.909V343.602C289.909 342.111 289.157 341.366 287.653 341.366C286.218 341.366 285.438 342.139 285.315 343.684ZM294.083 346.647C294.083 344.507 295.641 343.438 298.758 343.438C299.49 343.438 300.221 343.506 300.953 343.643V342.833C300.953 341.869 300.259 341.387 298.871 341.387C297.695 341.387 296.39 341.558 294.954 341.899V339.746C296.39 339.404 297.695 339.233 298.871 339.233C302.07 339.233 303.67 340.416 303.67 342.781V350H302.091L301.127 349.036C300.19 349.679 299.158 350 298.03 350C295.398 350 294.083 348.882 294.083 346.647ZM300.953 345.488C300.269 345.352 299.538 345.283 298.758 345.283C297.453 345.283 296.8 345.728 296.8 346.616C296.8 347.573 297.347 348.052 298.44 348.052C299.343 348.052 300.18 347.771 300.953 347.211V345.488ZM306.244 350V339.233H308.346L308.664 340.792C309.627 339.753 310.786 339.233 312.14 339.233C313.493 339.233 314.419 339.726 314.918 340.71C316.019 339.726 317.171 339.233 318.374 339.233C320.849 339.233 322.086 340.597 322.086 343.325V350H319.369V343.222C319.369 342.026 318.829 341.428 317.749 341.428C316.942 341.428 316.166 341.79 315.421 342.515V350H312.704V343.253C312.704 342.036 312.205 341.428 311.207 341.428C310.414 341.428 309.665 341.79 308.961 342.515V350H306.244ZM329.53 343.54V345.693H324.403V343.54H329.53ZM330.915 339.233H333.652L335.047 346.729L337.539 339.233H339.866L342.553 346.729L343.763 339.233H346.593L343.783 350H341.23L338.697 342.361L336.134 350H333.54L330.915 339.233ZM350.448 344.576C350.448 346.825 351.32 347.949 353.063 347.949C354.806 347.949 355.678 346.825 355.678 344.576C355.678 342.381 354.806 341.284 353.063 341.284C351.32 341.284 350.448 342.381 350.448 344.576ZM347.731 344.617C347.731 341.007 349.508 339.203 353.063 339.203C356.618 339.203 358.395 341.007 358.395 344.617C358.395 348.219 356.618 350.021 353.063 350.021C349.522 350.021 347.745 348.219 347.731 344.617ZM360.446 350V339.233H362.548L362.886 340.607C363.83 339.691 364.828 339.233 365.88 339.233V341.428C364.869 341.428 363.963 341.848 363.163 342.689V350H360.446ZM367.418 350V335.337H370.136V340.074C371.25 339.514 372.422 339.233 373.653 339.233C376.401 339.233 377.775 340.269 377.775 342.34C377.775 343.844 376.818 345.02 374.904 345.868L378.247 350H374.924L372.115 346.155V344.894C374.077 344.477 375.058 343.793 375.058 342.843C375.058 341.872 374.408 341.387 373.109 341.387C372.2 341.387 371.209 341.674 370.136 342.248V350H367.418Z" fill="#6AC1D5"/>
<path d="M79.2275 290.385C77.9629 290.863 76.5273 291.103 74.9209 291.103C69.6572 291.103 67.0254 288.556 67.0254 283.463C67.0254 278.644 69.6572 276.234 74.9209 276.234C76.5273 276.234 77.9629 276.474 79.2275 276.952V279.413C77.9629 278.866 76.5957 278.593 75.126 278.593C71.6055 278.593 69.8452 280.216 69.8452 283.463C69.8452 286.984 71.6055 288.744 75.126 288.744C76.5957 288.744 77.9629 288.471 79.2275 287.924V290.385ZM81.5347 290.385V287.924C83.0044 288.471 84.6655 288.744 86.5181 288.744C88.7671 288.744 89.8916 287.992 89.8916 286.488C89.8916 285.395 89.2012 284.848 87.8203 284.848H85.5234C82.5225 284.848 81.022 283.48 81.022 280.746C81.022 277.738 83.1582 276.234 87.4307 276.234C89.0713 276.234 90.6265 276.474 92.0962 276.952V279.413C90.6265 278.866 89.0713 278.593 87.4307 278.593C84.9697 278.593 83.7393 279.311 83.7393 280.746C83.7393 281.84 84.334 282.387 85.5234 282.387H87.8203C91.0127 282.387 92.6089 283.754 92.6089 286.488C92.6089 289.564 90.5786 291.103 86.5181 291.103C84.6655 291.103 83.0044 290.863 81.5347 290.385ZM94.6597 290.385V287.924C96.1294 288.471 97.7905 288.744 99.6431 288.744C101.892 288.744 103.017 287.992 103.017 286.488C103.017 285.395 102.326 284.848 100.945 284.848H98.6484C95.6475 284.848 94.147 283.48 94.147 280.746C94.147 277.738 96.2832 276.234 100.556 276.234C102.196 276.234 103.751 276.474 105.221 276.952V279.413C103.751 278.866 102.196 278.593 100.556 278.593C98.0947 278.593 96.8643 279.311 96.8643 280.746C96.8643 281.84 97.459 282.387 98.6484 282.387H100.945C104.138 282.387 105.734 283.754 105.734 286.488C105.734 289.564 103.704 291.103 99.6431 291.103C97.7905 291.103 96.1294 290.863 94.6597 290.385ZM109.682 291H106.759L114.193 276.337H117.116L109.682 291ZM118.654 290.385V287.924C120.124 288.471 121.785 288.744 123.637 288.744C125.886 288.744 127.011 287.992 127.011 286.488C127.011 285.395 126.32 284.848 124.939 284.848H122.643C119.642 284.848 118.141 283.48 118.141 280.746C118.141 277.738 120.277 276.234 124.55 276.234C126.19 276.234 127.746 276.474 129.215 276.952V279.413C127.746 278.866 126.19 278.593 124.55 278.593C122.089 278.593 120.858 279.311 120.858 280.746C120.858 281.84 121.453 282.387 122.643 282.387H124.939C128.132 282.387 129.728 283.754 129.728 286.488C129.728 289.564 127.698 291.103 123.637 291.103C121.785 291.103 120.124 290.863 118.654 290.385ZM143.725 290.385C142.46 290.863 141.024 291.103 139.418 291.103C134.154 291.103 131.522 288.556 131.522 283.463C131.522 278.644 134.154 276.234 139.418 276.234C141.024 276.234 142.46 276.474 143.725 276.952V279.413C142.46 278.866 141.093 278.593 139.623 278.593C136.103 278.593 134.342 280.216 134.342 283.463C134.342 286.984 136.103 288.744 139.623 288.744C141.093 288.744 142.46 288.471 143.725 287.924V290.385ZM146.032 290.385V287.924C147.501 288.471 149.163 288.744 151.015 288.744C153.264 288.744 154.389 287.992 154.389 286.488C154.389 285.395 153.698 284.848 152.317 284.848H150.021C147.02 284.848 145.519 283.48 145.519 280.746C145.519 277.738 147.655 276.234 151.928 276.234C153.568 276.234 155.124 276.474 156.593 276.952V279.413C155.124 278.866 153.568 278.593 151.928 278.593C149.467 278.593 148.236 279.311 148.236 280.746C148.236 281.84 148.831 282.387 150.021 282.387H152.317C155.51 282.387 157.106 283.754 157.106 286.488C157.106 289.564 155.076 291.103 151.015 291.103C149.163 291.103 147.501 290.863 146.032 290.385ZM159.157 290.385V287.924C160.626 288.471 162.288 288.744 164.14 288.744C166.389 288.744 167.514 287.992 167.514 286.488C167.514 285.395 166.823 284.848 165.442 284.848H163.146C160.145 284.848 158.644 283.48 158.644 280.746C158.644 277.738 160.78 276.234 165.053 276.234C166.693 276.234 168.249 276.474 169.718 276.952V279.413C168.249 278.866 166.693 278.593 165.053 278.593C162.592 278.593 161.361 279.311 161.361 280.746C161.361 281.84 161.956 282.387 163.146 282.387H165.442C168.635 282.387 170.231 283.754 170.231 286.488C170.231 289.564 168.201 291.103 164.14 291.103C162.288 291.103 160.626 290.863 159.157 290.385Z" fill="#9CC9F2"/>
<path d="M103.538 230.979V216.337H110.203C113.197 216.337 114.694 217.646 114.694 220.264C114.694 222.035 113.529 223.501 111.198 224.663L115.843 231H112.418L107.958 224.612V223.371C110.555 222.927 111.854 221.918 111.854 220.346C111.854 219.266 111.246 218.726 110.029 218.726H106.307V230.979H103.538ZM121.421 220.233C124.688 220.233 126.322 221.901 126.322 225.237C126.322 225.682 126.292 226.126 126.23 226.57H119.083C119.083 228.088 120.197 228.847 122.426 228.847C123.513 228.847 124.6 228.744 125.687 228.539V230.692C124.736 230.897 123.581 231 122.221 231C118.317 231 116.366 229.165 116.366 225.494C116.366 221.987 118.051 220.233 121.421 220.233ZM119.083 224.684H123.677V224.602C123.677 223.111 122.925 222.366 121.421 222.366C119.985 222.366 119.206 223.139 119.083 224.684ZM127.85 227.647C127.85 225.507 129.409 224.438 132.526 224.438C133.257 224.438 133.989 224.506 134.72 224.643V223.833C134.72 222.869 134.026 222.387 132.639 222.387C131.463 222.387 130.157 222.558 128.722 222.899V220.746C130.157 220.404 131.463 220.233 132.639 220.233C135.838 220.233 137.438 221.416 137.438 223.781V231H135.858L134.895 230.036C133.958 230.679 132.926 231 131.798 231C129.166 231 127.85 229.882 127.85 227.647ZM134.72 226.488C134.037 226.352 133.305 226.283 132.526 226.283C131.22 226.283 130.567 226.728 130.567 227.616C130.567 228.573 131.114 229.052 132.208 229.052C133.11 229.052 133.948 228.771 134.72 228.211V226.488ZM147.958 230.692C147.069 230.897 146.146 231 145.189 231C141.361 231 139.447 229.137 139.447 225.412C139.447 221.959 141.361 220.233 145.189 220.233C146.146 220.233 147.069 220.336 147.958 220.541V222.694C147.069 222.489 146.215 222.387 145.395 222.387C143.241 222.387 142.165 223.395 142.165 225.412C142.165 227.702 143.241 228.847 145.395 228.847C146.215 228.847 147.069 228.744 147.958 228.539V230.692ZM149.599 218.49H151.608L152.019 220.233H154.726V222.387H152.316V227.339C152.316 228.344 152.75 228.847 153.618 228.847H154.726V231H152.306C150.501 231 149.599 230.033 149.599 228.098V218.49Z" fill="#9CC9F2"/>
<path d="M260.229 317.692C259.34 317.897 258.417 318 257.46 318C253.632 318 251.718 316.137 251.718 312.412C251.718 308.959 253.632 307.233 257.46 307.233C258.417 307.233 259.34 307.336 260.229 307.541V309.694C259.34 309.489 258.485 309.387 257.665 309.387C255.512 309.387 254.435 310.395 254.435 312.412C254.435 314.702 255.512 315.847 257.665 315.847C258.485 315.847 259.34 315.744 260.229 315.539V317.692ZM264.228 312.576C264.228 314.825 265.099 315.949 266.842 315.949C268.585 315.949 269.457 314.825 269.457 312.576C269.457 310.381 268.585 309.284 266.842 309.284C265.099 309.284 264.228 310.381 264.228 312.576ZM261.51 312.617C261.51 309.007 263.288 307.203 266.842 307.203C270.397 307.203 272.174 309.007 272.174 312.617C272.174 316.219 270.397 318.021 266.842 318.021C263.301 318.021 261.524 316.219 261.51 312.617ZM274.225 318V307.233H276.327L276.645 308.792C277.609 307.753 278.768 307.233 280.121 307.233C281.475 307.233 282.401 307.726 282.9 308.71C284 307.726 285.152 307.233 286.355 307.233C288.83 307.233 290.067 308.597 290.067 311.325V318H287.35V311.222C287.35 310.026 286.81 309.428 285.73 309.428C284.923 309.428 284.147 309.79 283.402 310.515V318H280.685V311.253C280.685 310.036 280.186 309.428 279.188 309.428C278.395 309.428 277.646 309.79 276.942 310.515V318H274.225ZM292.641 318V307.233H294.743L295.061 308.792C296.025 307.753 297.184 307.233 298.537 307.233C299.891 307.233 300.817 307.726 301.316 308.71C302.417 307.726 303.568 307.233 304.771 307.233C307.246 307.233 308.483 308.597 308.483 311.325V318H305.766V311.222C305.766 310.026 305.226 309.428 304.146 309.428C303.339 309.428 302.563 309.79 301.818 310.515V318H299.101V311.253C299.101 310.036 298.602 309.428 297.604 309.428C296.811 309.428 296.062 309.79 295.358 310.515V318H292.641ZM313.774 303.337V305.49H311.057V303.337H313.774ZM313.774 307.233V318H311.057V307.233H313.774ZM316.194 305.49H318.204L318.614 307.233H321.321V309.387H318.912V314.339C318.912 315.344 319.346 315.847 320.214 315.847H321.321V318H318.901C317.097 318 316.194 317.033 316.194 315.098V305.49ZM323.177 318V307.233H325.279L325.597 308.792C326.561 307.753 327.72 307.233 329.073 307.233C330.427 307.233 331.353 307.726 331.852 308.71C332.953 307.726 334.104 307.233 335.308 307.233C337.782 307.233 339.02 308.597 339.02 311.325V318H336.302V311.222C336.302 310.026 335.762 309.428 334.682 309.428C333.875 309.428 333.1 309.79 332.354 310.515V318H329.637V311.253C329.637 310.036 329.138 309.428 328.14 309.428C327.347 309.428 326.599 309.79 325.895 310.515V318H323.177ZM346.136 307.233C349.403 307.233 351.037 308.901 351.037 312.237C351.037 312.682 351.006 313.126 350.945 313.57H343.798C343.798 315.088 344.912 315.847 347.141 315.847C348.228 315.847 349.314 315.744 350.401 315.539V317.692C349.451 317.897 348.296 318 346.936 318C343.032 318 341.081 316.165 341.081 312.494C341.081 308.987 342.766 307.233 346.136 307.233ZM343.798 311.684H348.392V311.602C348.392 310.111 347.64 309.366 346.136 309.366C344.7 309.366 343.921 310.139 343.798 311.684ZM353.078 318V307.233H355.18L355.518 308.812C356.55 307.76 357.726 307.233 359.045 307.233C361.595 307.233 362.87 308.56 362.87 311.212V318H360.153V311.212C360.153 310.022 359.562 309.428 358.379 309.428C357.497 309.428 356.636 309.78 355.795 310.484V318H353.078ZM365.29 305.49H367.3L367.71 307.233H370.417V309.387H368.007V314.339C368.007 315.344 368.441 315.847 369.31 315.847H370.417V318H367.997C366.192 318 365.29 317.033 365.29 315.098V305.49Z" fill="#9CC9F2"/>
<path d="M191.999 258.19C192.676 258.56 193.404 258.744 194.183 258.744C195.803 258.744 196.613 257.606 196.613 255.33C196.613 253.395 195.718 252.428 193.927 252.428C193.154 252.428 192.512 252.476 191.999 252.571V258.19ZM189.282 250.674C190.71 250.38 192.221 250.233 193.814 250.233C197.471 250.233 199.3 251.939 199.3 255.35C199.3 259.117 197.598 261 194.193 261C193.469 261 192.737 260.829 191.999 260.487V264.896H189.282V250.674ZM211.051 250.233V261H208.928L208.6 259.626C207.363 260.542 206.05 261 204.663 261C202.461 261 201.361 259.698 201.361 257.093V250.233H204.078V257.021C204.078 258.211 204.598 258.806 205.637 258.806C206.519 258.806 207.417 258.454 208.333 257.75V250.233H211.051ZM220.515 252.674C220.071 252.51 219.438 252.428 218.618 252.428C216.738 252.428 215.798 253.463 215.798 255.535C215.798 257.538 216.608 258.539 218.229 258.539C219.008 258.539 219.77 258.354 220.515 257.985V252.674ZM223.232 260.18C223.232 263.324 221.342 264.896 217.562 264.896C216.236 264.896 215.06 264.726 214.035 264.384V262.23C215.081 262.572 216.263 262.743 217.583 262.743C219.538 262.743 220.515 261.923 220.515 260.282C219.708 260.624 218.84 260.795 217.911 260.795C214.711 260.795 213.112 259.048 213.112 255.555C213.112 252.007 214.975 250.233 218.7 250.233C219.951 250.233 221.462 250.38 223.232 250.674V260.18Z" fill="#9CC9F2"/>
<path d="M230.504 274.337L224.075 289H221.152L215 274.337H218.23L222.772 285.565L227.305 274.337H230.504ZM241.476 278.233V289H239.353L239.025 287.626C237.788 288.542 236.475 289 235.087 289C232.886 289 231.786 287.698 231.786 285.093V278.233H234.503V285.021C234.503 286.211 235.022 286.806 236.062 286.806C236.943 286.806 237.842 286.454 238.758 285.75V278.233H241.476ZM248.592 278.233C251.859 278.233 253.493 279.901 253.493 283.237C253.493 283.682 253.462 284.126 253.401 284.57H246.254C246.254 286.088 247.368 286.847 249.597 286.847C250.684 286.847 251.771 286.744 252.857 286.539V288.692C251.907 288.897 250.752 289 249.392 289C245.488 289 243.537 287.165 243.537 283.494C243.537 279.987 245.222 278.233 248.592 278.233ZM246.254 282.684H250.848V282.602C250.848 281.111 250.096 280.366 248.592 280.366C247.156 280.366 246.377 281.139 246.254 282.684Z" fill="#9CC9F2"/>
<path d="M96.2817 318V307.233H98.3838L98.7017 308.792C99.6655 307.753 100.824 307.233 102.178 307.233C103.531 307.233 104.458 307.726 104.957 308.71C106.057 307.726 107.209 307.233 108.412 307.233C110.887 307.233 112.124 308.597 112.124 311.325V318H109.407V311.222C109.407 310.026 108.867 309.428 107.787 309.428C106.98 309.428 106.204 309.79 105.459 310.515V318H102.742V311.253C102.742 310.036 102.243 309.428 101.245 309.428C100.452 309.428 99.7031 309.79 98.999 310.515V318H96.2817ZM113.416 307.233H116.287L118.902 314.76L121.619 307.233H124.49L120.112 318H117.528L113.416 307.233ZM124.49 307.233H127.361L129.976 314.76L132.693 307.233H135.564L131.186 318H128.602L124.49 307.233ZM136.846 318V307.233H138.948L139.266 308.792C140.23 307.753 141.389 307.233 142.742 307.233C144.096 307.233 145.022 307.726 145.521 308.71C146.622 307.726 147.773 307.233 148.977 307.233C151.451 307.233 152.688 308.597 152.688 311.325V318H149.971V311.222C149.971 310.026 149.431 309.428 148.351 309.428C147.544 309.428 146.769 309.79 146.023 310.515V318H143.306V311.253C143.306 310.036 142.807 309.428 141.809 309.428C141.016 309.428 140.268 309.79 139.563 310.515V318H136.846Z" fill="#E995D2"/>
</g>
<defs>
<clipPath id="clip0">
<rect width="459" height="621" fill="white"/>
</clipPath>
</defs>
</svg>
