<svg width="636" height="654" viewBox="0 0 636 654" fill="none" xmlns="http://www.w3.org/2000/svg">
<g id="slide-2">
<path id="Ellipse 21" d="M205.735 611.368C258.235 679.368 462.173 666.675 502.734 564.367C524.734 447.367 410.721 489.026 433.235 379.367C356.733 48.6974 -71.7664 401.696 205.735 611.368Z" fill="white"/>
<g id="chair">
<g id="chair-structure">
<path fill-rule="evenodd" clip-rule="evenodd" d="M255.198 556.794H439.794V569.794V570.444V617.893H429.394V570.444H255.198V617.893H244.798L244.798 570.444L172.65 396.897H186.95L221.074 476.846L255.198 556.794Z" fill="black"/>
<path d="M439.794 556.794H440.294V556.294H439.794V556.794ZM255.198 556.794L254.738 556.99L254.868 557.294H255.198V556.794ZM439.794 617.893V618.393H440.294V617.893H439.794ZM429.394 617.893H428.894V618.393H429.394V617.893ZM429.394 570.444H429.894V569.944H429.394V570.444ZM255.198 570.444V569.944H254.698V570.444H255.198ZM255.198 617.893V618.393H255.698V617.893H255.198ZM244.798 617.893L244.298 617.893L244.298 618.393H244.798V617.893ZM244.798 570.444L245.298 570.444L245.298 570.344L245.26 570.252L244.798 570.444ZM172.65 396.897V396.397H171.901L172.188 397.089L172.65 396.897ZM186.95 396.897L187.409 396.701L187.28 396.397H186.95V396.897ZM221.074 476.846L221.534 476.649L221.534 476.649L221.074 476.846ZM439.794 556.294H255.198V557.294H439.794V556.294ZM440.294 569.794V556.794H439.294V569.794H440.294ZM439.294 569.794V570.444H440.294V569.794H439.294ZM439.294 570.444V617.893H440.294V570.444H439.294ZM439.794 617.393H429.394V618.393H439.794V617.393ZM429.894 617.893V570.444H428.894V617.893H429.894ZM255.198 570.944H429.394V569.944H255.198V570.944ZM254.698 570.444V617.893H255.698V570.444H254.698ZM255.198 617.393H244.798V618.393H255.198V617.393ZM245.298 617.893L245.298 570.444L244.298 570.444L244.298 617.893L245.298 617.893ZM172.188 397.089L244.337 570.636L245.26 570.252L173.112 396.706L172.188 397.089ZM186.95 396.397H172.65V397.397H186.95V396.397ZM221.534 476.649L187.409 396.701L186.49 397.094L220.614 477.042L221.534 476.649ZM255.658 556.598L221.534 476.649L220.614 477.042L254.738 556.99L255.658 556.598Z" fill="black"/>
</g>
<path id="Vector 12" d="M214.898 408.599C202.569 394.298 193.449 408.599 193.449 408.599L255.197 556.146H430.044C430.044 556.146 435.244 536.646 424.194 534.697C413.144 532.747 272.097 539.246 272.097 539.246C272.097 539.246 227.228 422.901 214.898 408.599Z" fill="#356EC2" stroke="#356EC2"/>
</g>
<path id="Rectangle 27" d="M0 618H636V635H0V618Z" fill="#FFB6C1"/>
<path id="JavaScript" d="M256.202 211.544V223.971C256.202 227.324 253.903 229 249.305 229V226.192C251.747 226.192 252.967 225.452 252.967 223.971V211.544H256.202ZM258.949 225.008C258.949 222.461 260.804 221.188 264.515 221.188C265.386 221.188 266.257 221.269 267.127 221.432V220.467C267.127 219.32 266.301 218.746 264.649 218.746C263.25 218.746 261.695 218.95 259.986 219.356V216.793C261.695 216.386 263.25 216.183 264.649 216.183C268.458 216.183 270.362 217.59 270.362 220.406V229H268.482L267.335 227.853C266.22 228.618 264.991 229 263.648 229C260.515 229 258.949 227.669 258.949 225.008ZM267.127 223.629C266.314 223.466 265.443 223.385 264.515 223.385C262.961 223.385 262.184 223.914 262.184 224.972C262.184 226.111 262.835 226.681 264.137 226.681C265.211 226.681 266.208 226.347 267.127 225.68V223.629ZM271.9 216.183H275.318L278.431 225.143L281.666 216.183H285.084L279.872 229H276.795L271.9 216.183ZM286 225.008C286 222.461 287.855 221.188 291.566 221.188C292.437 221.188 293.307 221.269 294.178 221.432V220.467C294.178 219.32 293.352 218.746 291.7 218.746C290.3 218.746 288.746 218.95 287.037 219.356V216.793C288.746 216.386 290.3 216.183 291.7 216.183C295.509 216.183 297.413 217.59 297.413 220.406V229H295.533L294.386 227.853C293.271 228.618 292.042 229 290.699 229C287.566 229 286 227.669 286 225.008ZM294.178 223.629C293.364 223.466 292.494 223.385 291.566 223.385C290.012 223.385 289.234 223.914 289.234 224.972C289.234 226.111 289.885 226.681 291.188 226.681C292.262 226.681 293.259 226.347 294.178 225.68V223.629ZM300.477 228.268V225.338C302.227 225.989 304.204 226.314 306.41 226.314C309.087 226.314 310.426 225.419 310.426 223.629C310.426 222.327 309.604 221.676 307.96 221.676H305.226C301.653 221.676 299.867 220.048 299.867 216.793C299.867 213.212 302.41 211.422 307.496 211.422C309.449 211.422 311.301 211.707 313.05 212.276V215.206C311.301 214.555 309.449 214.229 307.496 214.229C304.566 214.229 303.102 215.084 303.102 216.793C303.102 218.095 303.81 218.746 305.226 218.746H307.96C311.76 218.746 313.661 220.374 313.661 223.629C313.661 227.291 311.244 229.122 306.41 229.122C304.204 229.122 302.227 228.837 300.477 228.268ZM325.562 228.634C324.505 228.878 323.406 229 322.267 229C317.709 229 315.431 226.782 315.431 222.347C315.431 218.237 317.709 216.183 322.267 216.183C323.406 216.183 324.505 216.305 325.562 216.549V219.112C324.505 218.868 323.487 218.746 322.511 218.746C319.947 218.746 318.666 219.946 318.666 222.347C318.666 225.073 319.947 226.437 322.511 226.437C323.487 226.437 324.505 226.314 325.562 226.07V228.634ZM327.699 229V216.183H330.201L330.604 217.818C331.727 216.728 332.915 216.183 334.168 216.183V218.795C332.964 218.795 331.886 219.295 330.934 220.296V229H327.699ZM339.234 211.544V214.107H336V211.544H339.234ZM339.234 216.183V229H336V216.183H339.234ZM345.533 225.655C346.339 226.095 347.206 226.314 348.133 226.314C350.062 226.314 351.026 224.959 351.026 222.25C351.026 219.946 349.96 218.795 347.828 218.795C346.909 218.795 346.144 218.852 345.533 218.966V225.655ZM342.298 216.708C343.999 216.358 345.798 216.183 347.694 216.183C352.048 216.183 354.225 218.213 354.225 222.274C354.225 226.758 352.198 229 348.146 229C347.283 229 346.412 228.797 345.533 228.39V233.639H342.298V216.708ZM356.495 214.107H358.888L359.376 216.183H362.599V218.746H359.73V224.642C359.73 225.838 360.247 226.437 361.28 226.437H362.599V229H359.718C357.569 229 356.495 227.848 356.495 225.545V214.107Z" fill="#E995D2"/>
<path id="empathy" d="M209.934 281.183C213.824 281.183 215.769 283.168 215.769 287.14C215.769 287.669 215.732 288.198 215.659 288.727H207.15C207.15 290.533 208.477 291.437 211.13 291.437C212.424 291.437 213.718 291.314 215.012 291.07V293.634C213.881 293.878 212.505 294 210.886 294C206.239 294 203.916 291.815 203.916 287.445C203.916 283.27 205.922 281.183 209.934 281.183ZM207.15 286.48H212.619V286.383C212.619 284.609 211.724 283.722 209.934 283.722C208.225 283.722 207.297 284.641 207.15 286.48ZM218.198 294V281.183H220.7L221.079 283.038C222.226 281.801 223.605 281.183 225.217 281.183C226.828 281.183 227.931 281.769 228.525 282.94C229.835 281.769 231.206 281.183 232.639 281.183C235.585 281.183 237.058 282.806 237.058 286.053V294H233.823V285.931C233.823 284.507 233.18 283.795 231.894 283.795C230.934 283.795 230.01 284.226 229.123 285.089V294H225.888V285.968C225.888 284.519 225.294 283.795 224.106 283.795C223.162 283.795 222.271 284.226 221.433 285.089V294H218.198ZM243.356 290.655C244.162 291.095 245.029 291.314 245.957 291.314C247.885 291.314 248.85 289.959 248.85 287.25C248.85 284.946 247.784 283.795 245.651 283.795C244.732 283.795 243.967 283.852 243.356 283.966V290.655ZM240.122 281.708C241.822 281.358 243.621 281.183 245.517 281.183C249.871 281.183 252.048 283.213 252.048 287.274C252.048 291.758 250.021 294 245.969 294C245.106 294 244.235 293.797 243.356 293.39V298.639H240.122V281.708ZM253.891 290.008C253.891 287.461 255.747 286.188 259.458 286.188C260.328 286.188 261.199 286.269 262.07 286.432V285.467C262.07 284.32 261.244 283.746 259.592 283.746C258.192 283.746 256.638 283.95 254.929 284.356V281.793C256.638 281.386 258.192 281.183 259.592 281.183C263.4 281.183 265.305 282.59 265.305 285.406V294H263.425L262.277 292.853C261.162 293.618 259.934 294 258.591 294C255.458 294 253.891 292.669 253.891 290.008ZM262.07 288.629C261.256 288.466 260.385 288.385 259.458 288.385C257.903 288.385 257.126 288.914 257.126 289.972C257.126 291.111 257.777 291.681 259.079 291.681C260.153 291.681 261.15 291.347 262.07 290.68V288.629ZM268.186 279.107H270.578L271.066 281.183H274.289V283.746H271.42V289.642C271.42 290.838 271.937 291.437 272.971 291.437H274.289V294H271.408C269.26 294 268.186 292.848 268.186 290.545V279.107ZM276.499 294V276.544H279.733V282.818C280.743 281.728 282.032 281.183 283.603 281.183C286.639 281.183 288.156 282.761 288.156 285.919V294H284.921V285.919C284.921 284.503 284.217 283.795 282.81 283.795C281.76 283.795 280.734 284.214 279.733 285.052V294H276.499ZM289.694 281.183H293.125L296.359 290.411L299.521 281.183H302.89L297.568 294.378C296.624 296.706 295.114 298.362 293.039 299.347L291.477 297.137C292.909 296.511 293.951 295.489 294.602 294.073L289.694 281.183Z" fill="#E995D2"/>
<path id="autonomous" d="M393.916 407.008C393.916 404.461 395.771 403.188 399.482 403.188C400.353 403.188 401.223 403.269 402.094 403.432V402.467C402.094 401.32 401.268 400.746 399.616 400.746C398.216 400.746 396.662 400.95 394.953 401.356V398.793C396.662 398.386 398.216 398.183 399.616 398.183C403.425 398.183 405.329 399.59 405.329 402.406V411H403.449L402.302 409.853C401.187 410.618 399.958 411 398.615 411C395.482 411 393.916 409.669 393.916 407.008ZM402.094 405.629C401.28 405.466 400.41 405.385 399.482 405.385C397.928 405.385 397.15 405.914 397.15 406.972C397.15 408.111 397.801 408.681 399.104 408.681C400.178 408.681 401.175 408.347 402.094 407.68V405.629ZM419.929 398.183V411H417.402L417.011 409.364C415.538 410.455 413.976 411 412.324 411C409.703 411 408.393 409.45 408.393 406.349V398.183H411.628V406.264C411.628 407.68 412.246 408.388 413.483 408.388C414.533 408.388 415.603 407.969 416.694 407.13V398.183H419.929ZM422.81 396.107H425.202L425.69 398.183H428.913V400.746H426.044V406.642C426.044 407.838 426.561 408.437 427.595 408.437H428.913V411H426.032C423.884 411 422.81 409.848 422.81 407.545V396.107ZM433.747 404.542C433.747 407.22 434.785 408.559 436.86 408.559C438.935 408.559 439.973 407.22 439.973 404.542C439.973 401.93 438.935 400.624 436.86 400.624C434.785 400.624 433.747 401.93 433.747 404.542ZM430.512 404.591C430.512 400.294 432.628 398.146 436.86 398.146C441.092 398.146 443.208 400.294 443.208 404.591C443.208 408.88 441.092 411.024 436.86 411.024C432.644 411.024 430.528 408.88 430.512 404.591ZM445.649 411V398.183H448.151L448.554 400.062C449.783 398.809 451.183 398.183 452.753 398.183C455.789 398.183 457.307 399.761 457.307 402.919V411H454.072V402.919C454.072 401.503 453.368 400.795 451.96 400.795C450.91 400.795 449.885 401.214 448.884 402.052V411H445.649ZM462.995 404.542C462.995 407.22 464.033 408.559 466.108 408.559C468.183 408.559 469.221 407.22 469.221 404.542C469.221 401.93 468.183 400.624 466.108 400.624C464.033 400.624 462.995 401.93 462.995 404.542ZM459.76 404.591C459.76 400.294 461.876 398.146 466.108 398.146C470.34 398.146 472.456 400.294 472.456 404.591C472.456 408.88 470.34 411.024 466.108 411.024C461.892 411.024 459.777 408.88 459.76 404.591ZM474.897 411V398.183H477.399L477.778 400.038C478.925 398.801 480.305 398.183 481.916 398.183C483.527 398.183 484.63 398.769 485.224 399.94C486.534 398.769 487.906 398.183 489.338 398.183C492.284 398.183 493.757 399.806 493.757 403.053V411H490.522V402.931C490.522 401.507 489.879 400.795 488.593 400.795C487.633 400.795 486.709 401.226 485.822 402.089V411H482.587V402.968C482.587 401.519 481.993 400.795 480.805 400.795C479.861 400.795 478.97 401.226 478.132 402.089V411H474.897ZM499.445 404.542C499.445 407.22 500.483 408.559 502.558 408.559C504.633 408.559 505.671 407.22 505.671 404.542C505.671 401.93 504.633 400.624 502.558 400.624C500.483 400.624 499.445 401.93 499.445 404.542ZM496.21 404.591C496.21 400.294 498.326 398.146 502.558 398.146C506.79 398.146 508.906 400.294 508.906 404.591C508.906 408.88 506.79 411.024 502.558 411.024C498.343 411.024 496.227 408.88 496.21 404.591ZM522.883 398.183V411H520.356L519.965 409.364C518.492 410.455 516.93 411 515.278 411C512.657 411 511.347 409.45 511.347 406.349V398.183H514.582V406.264C514.582 407.68 515.201 408.388 516.438 408.388C517.487 408.388 518.557 407.969 519.648 407.13V398.183H522.883ZM525.947 410.39V407.704C527.371 408.274 529.015 408.559 530.878 408.559C532.27 408.559 532.966 408.111 532.966 407.216C532.966 406.361 532.498 405.934 531.562 405.934H529.243C526.639 405.934 525.336 404.652 525.336 402.089C525.336 399.403 527.237 398.061 531.037 398.061C532.648 398.061 534.166 398.305 535.59 398.793V401.479C534.166 400.909 532.62 400.624 530.952 400.624C529.202 400.624 528.327 401.072 528.327 401.967C528.327 402.821 528.836 403.249 529.853 403.249H531.928C534.777 403.249 536.201 404.53 536.201 407.094C536.201 409.779 534.386 411.122 530.756 411.122C528.974 411.122 527.371 410.878 525.947 410.39Z" fill="#E995D2"/>
<path id="redux" d="M367.526 319V306.183H370.028L370.431 307.818C371.554 306.728 372.742 306.183 373.996 306.183V308.795C372.791 308.795 371.713 309.295 370.761 310.296V319H367.526ZM381.234 306.183C385.124 306.183 387.069 308.168 387.069 312.14C387.069 312.669 387.033 313.198 386.959 313.727H378.451C378.451 315.533 379.778 316.437 382.431 316.437C383.725 316.437 385.019 316.314 386.312 316.07V318.634C385.181 318.878 383.806 319 382.187 319C377.54 319 375.216 316.815 375.216 312.445C375.216 308.27 377.222 306.183 381.234 306.183ZM378.451 311.48H383.92V311.383C383.92 309.609 383.025 308.722 381.234 308.722C379.525 308.722 378.598 309.641 378.451 311.48ZM397.616 309.527C396.949 309.088 396.111 308.868 395.102 308.868C393.091 308.868 392.086 309.995 392.086 312.25C392.086 314.927 393.132 316.266 395.224 316.266C396.07 316.266 396.868 316.148 397.616 315.912V309.527ZM400.851 318.231C398.89 318.744 396.973 319 395.102 319C390.959 319 388.888 316.778 388.888 312.335C388.888 308.233 390.915 306.183 394.967 306.183C395.83 306.183 396.713 306.386 397.616 306.793V301.544H400.851V318.231ZM415.438 306.183V319H412.912L412.521 317.364C411.048 318.455 409.486 319 407.833 319C405.213 319 403.903 317.45 403.903 314.349V306.183H407.138V314.264C407.138 315.68 407.756 316.388 408.993 316.388C410.043 316.388 411.113 315.969 412.204 315.13V306.183H415.438ZM421.774 312.591L416.977 306.183H420.578L423.568 310.187L426.559 306.183H430.16L425.375 312.591L430.16 319H426.559L423.568 314.996L420.578 319H416.977L421.774 312.591Z" fill="#E995D2"/>
<path id="nodeJS" d="M102.526 289V276.183H105.028L105.431 278.062C106.66 276.809 108.06 276.183 109.63 276.183C112.666 276.183 114.184 277.761 114.184 280.919V289H110.949V280.919C110.949 279.503 110.245 278.795 108.837 278.795C107.787 278.795 106.762 279.214 105.761 280.052V289H102.526ZM119.872 282.542C119.872 285.22 120.91 286.559 122.985 286.559C125.06 286.559 126.098 285.22 126.098 282.542C126.098 279.93 125.06 278.624 122.985 278.624C120.91 278.624 119.872 279.93 119.872 282.542ZM116.637 282.591C116.637 278.294 118.753 276.146 122.985 276.146C127.217 276.146 129.333 278.294 129.333 282.591C129.333 286.88 127.217 289.024 122.985 289.024C118.769 289.024 116.653 286.88 116.637 282.591ZM139.892 279.527C139.224 279.088 138.386 278.868 137.377 278.868C135.367 278.868 134.362 279.995 134.362 282.25C134.362 284.927 135.408 286.266 137.499 286.266C138.345 286.266 139.143 286.148 139.892 285.912V279.527ZM143.126 288.231C141.165 288.744 139.249 289 137.377 289C133.235 289 131.164 286.778 131.164 282.335C131.164 278.233 133.19 276.183 137.243 276.183C138.105 276.183 138.988 276.386 139.892 276.793V271.544H143.126V288.231ZM151.586 276.183C155.476 276.183 157.421 278.168 157.421 282.14C157.421 282.669 157.384 283.198 157.311 283.727H148.803C148.803 285.533 150.129 286.437 152.782 286.437C154.076 286.437 155.37 286.314 156.664 286.07V288.634C155.533 288.878 154.158 289 152.538 289C147.891 289 145.568 286.815 145.568 282.445C145.568 278.27 147.574 276.183 151.586 276.183ZM148.803 281.48H154.271V281.383C154.271 279.609 153.376 278.722 151.586 278.722C149.877 278.722 148.949 279.641 148.803 281.48ZM165.526 271.544V283.971C165.526 287.324 163.227 289 158.629 289V286.192C161.071 286.192 162.292 285.452 162.292 283.971V271.544H165.526ZM168.883 288.268V285.338C170.633 285.989 172.611 286.314 174.816 286.314C177.493 286.314 178.832 285.419 178.832 283.629C178.832 282.327 178.01 281.676 176.366 281.676H173.632C170.059 281.676 168.273 280.048 168.273 276.793C168.273 273.212 170.816 271.422 175.902 271.422C177.855 271.422 179.707 271.707 181.457 272.276V275.206C179.707 274.555 177.855 274.229 175.902 274.229C172.973 274.229 171.508 275.084 171.508 276.793C171.508 278.095 172.216 278.746 173.632 278.746H176.366C180.167 278.746 182.067 280.374 182.067 283.629C182.067 287.291 179.65 289.122 174.816 289.122C172.611 289.122 170.633 288.837 168.883 288.268Z" fill="#6AC1D5"/>
<path id="unit testing" d="M299.062 253.183V266H296.535L296.144 264.364C294.671 265.455 293.109 266 291.457 266C288.836 266 287.526 264.45 287.526 261.349V253.183H290.761V261.264C290.761 262.68 291.379 263.388 292.616 263.388C293.666 263.388 294.736 262.969 295.827 262.13V253.183H299.062ZM302.125 266V253.183H304.628L305.031 255.062C306.26 253.809 307.659 253.183 309.23 253.183C312.265 253.183 313.783 254.761 313.783 257.919V266H310.548V257.919C310.548 256.503 309.844 255.795 308.437 255.795C307.387 255.795 306.361 256.214 305.36 257.052V266H302.125ZM320.082 248.544V251.107H316.847V248.544H320.082ZM320.082 253.183V266H316.847V253.183H320.082ZM322.963 251.107H325.355L325.844 253.183H329.066V255.746H326.198V261.642C326.198 262.838 326.715 263.437 327.748 263.437H329.066V266H326.186C324.037 266 322.963 264.848 322.963 262.545V251.107ZM336.586 251.107H338.979L339.467 253.183H342.689V255.746H339.821V261.642C339.821 262.838 340.338 263.437 341.371 263.437H342.689V266H339.809C337.66 266 336.586 264.848 336.586 262.545V251.107ZM350.307 253.183C354.197 253.183 356.142 255.168 356.142 259.14C356.142 259.669 356.105 260.198 356.032 260.727H347.523C347.523 262.533 348.85 263.437 351.503 263.437C352.797 263.437 354.091 263.314 355.385 263.07V265.634C354.254 265.878 352.878 266 351.259 266C346.612 266 344.289 263.815 344.289 259.445C344.289 255.27 346.295 253.183 350.307 253.183ZM347.523 258.48H352.992V258.383C352.992 256.609 352.097 255.722 350.307 255.722C348.598 255.722 347.67 256.641 347.523 258.48ZM358.571 265.39V262.704C359.995 263.274 361.639 263.559 363.502 263.559C364.894 263.559 365.59 263.111 365.59 262.216C365.59 261.361 365.122 260.934 364.186 260.934H361.867C359.263 260.934 357.96 259.652 357.96 257.089C357.96 254.403 359.861 253.061 363.661 253.061C365.272 253.061 366.79 253.305 368.214 253.793V256.479C366.79 255.909 365.244 255.624 363.576 255.624C361.826 255.624 360.951 256.072 360.951 256.967C360.951 257.821 361.46 258.249 362.477 258.249H364.552C367.401 258.249 368.825 259.53 368.825 262.094C368.825 264.779 367.01 266.122 363.38 266.122C361.598 266.122 359.995 265.878 358.571 265.39ZM370.912 251.107H373.305L373.793 253.183H377.016V255.746H374.147V261.642C374.147 262.838 374.664 263.437 375.697 263.437H377.016V266H374.135C371.986 266 370.912 264.848 370.912 262.545V251.107ZM382.46 248.544V251.107H379.225V248.544H382.46ZM382.46 253.183V266H379.225V253.183H382.46ZM385.524 266V253.183H388.026L388.429 255.062C389.658 253.809 391.058 253.183 392.628 253.183C395.664 253.183 397.182 254.761 397.182 257.919V266H393.947V257.919C393.947 256.503 393.243 255.795 391.835 255.795C390.785 255.795 389.76 256.214 388.759 257.052V266H385.524ZM408.449 256.088C407.92 255.893 407.167 255.795 406.19 255.795C403.952 255.795 402.833 257.028 402.833 259.494C402.833 261.878 403.798 263.07 405.727 263.07C406.654 263.07 407.562 262.851 408.449 262.411V256.088ZM411.684 265.023C411.684 268.767 409.433 270.639 404.933 270.639C403.354 270.639 401.955 270.435 400.734 270.028V267.465C401.979 267.872 403.387 268.075 404.958 268.075C407.285 268.075 408.449 267.099 408.449 265.146C407.488 265.552 406.455 265.756 405.348 265.756C401.54 265.756 399.635 263.677 399.635 259.518C399.635 255.294 401.853 253.183 406.288 253.183C407.777 253.183 409.576 253.358 411.684 253.708V265.023Z" fill="#6AC1D5"/>
<path id="team-work" d="M343.343 367.107H345.735L346.224 369.183H349.446V371.746H346.578V377.642C346.578 378.838 347.094 379.437 348.128 379.437H349.446V382H346.565C344.417 382 343.343 380.848 343.343 378.545V367.107ZM357.063 369.183C360.953 369.183 362.898 371.168 362.898 375.14C362.898 375.669 362.862 376.198 362.789 376.727H354.28C354.28 378.533 355.607 379.437 358.26 379.437C359.554 379.437 360.848 379.314 362.142 379.07V381.634C361.01 381.878 359.635 382 358.016 382C353.369 382 351.045 379.815 351.045 375.445C351.045 371.27 353.051 369.183 357.063 369.183ZM354.28 374.48H359.749V374.383C359.749 372.609 358.854 371.722 357.063 371.722C355.354 371.722 354.427 372.641 354.28 374.48ZM364.717 378.008C364.717 375.461 366.573 374.188 370.284 374.188C371.154 374.188 372.025 374.269 372.896 374.432V373.467C372.896 372.32 372.07 371.746 370.418 371.746C369.018 371.746 367.464 371.95 365.755 372.356V369.793C367.464 369.386 369.018 369.183 370.418 369.183C374.227 369.183 376.131 370.59 376.131 373.406V382H374.251L373.104 380.853C371.989 381.618 370.76 382 369.417 382C366.284 382 364.717 380.669 364.717 378.008ZM372.896 376.629C372.082 376.466 371.211 376.385 370.284 376.385C368.729 376.385 367.952 376.914 367.952 377.972C367.952 379.111 368.603 379.681 369.905 379.681C370.979 379.681 371.976 379.347 372.896 378.68V376.629ZM379.195 382V369.183H381.697L382.076 371.038C383.223 369.801 384.603 369.183 386.214 369.183C387.825 369.183 388.928 369.769 389.522 370.94C390.832 369.769 392.203 369.183 393.636 369.183C396.582 369.183 398.055 370.806 398.055 374.053V382H394.82V373.931C394.82 372.507 394.177 371.795 392.891 371.795C391.931 371.795 391.007 372.226 390.12 373.089V382H386.885V373.968C386.885 372.519 386.291 371.795 385.103 371.795C384.159 371.795 383.268 372.226 382.43 373.089V382H379.195ZM406.917 374.31V376.873H400.813V374.31H406.917ZM408.565 369.183H411.824L413.484 378.106L416.451 369.183H419.222L422.42 378.106L423.86 369.183H427.229L423.885 382H420.845L417.83 372.906L414.778 382H411.69L408.565 369.183ZM431.819 375.542C431.819 378.22 432.857 379.559 434.932 379.559C437.007 379.559 438.045 378.22 438.045 375.542C438.045 372.93 437.007 371.624 434.932 371.624C432.857 371.624 431.819 372.93 431.819 375.542ZM428.584 375.591C428.584 371.294 430.7 369.146 434.932 369.146C439.164 369.146 441.28 371.294 441.28 375.591C441.28 379.88 439.164 382.024 434.932 382.024C430.717 382.024 428.601 379.88 428.584 375.591ZM443.721 382V369.183H446.224L446.626 370.818C447.75 369.728 448.938 369.183 450.191 369.183V371.795C448.986 371.795 447.908 372.295 446.956 373.296V382H443.721ZM452.022 382V364.544H455.257V370.184C456.583 369.516 457.979 369.183 459.444 369.183C462.715 369.183 464.351 370.416 464.351 372.881C464.351 374.672 463.212 376.071 460.933 377.081L464.913 382H460.958L457.613 377.422V375.921C459.948 375.424 461.116 374.611 461.116 373.479C461.116 372.324 460.343 371.746 458.797 371.746C457.715 371.746 456.535 372.088 455.257 372.771V382H452.022Z" fill="#6AC1D5"/>
<path id="CSS" d="M137.747 325.268C136.242 325.837 134.533 326.122 132.62 326.122C126.354 326.122 123.221 323.091 123.221 317.028C123.221 311.291 126.354 308.422 132.62 308.422C134.533 308.422 136.242 308.707 137.747 309.276V312.206C136.242 311.555 134.614 311.229 132.864 311.229C128.673 311.229 126.578 313.162 126.578 317.028C126.578 321.219 128.673 323.314 132.864 323.314C134.614 323.314 136.242 322.989 137.747 322.338V325.268ZM140.494 325.268V322.338C142.243 322.989 144.221 323.314 146.426 323.314C149.104 323.314 150.442 322.419 150.442 320.629C150.442 319.327 149.62 318.676 147.977 318.676H145.242C141.67 318.676 139.883 317.048 139.883 313.793C139.883 310.212 142.426 308.422 147.513 308.422C149.466 308.422 151.317 308.707 153.067 309.276V312.206C151.317 311.555 149.466 311.229 147.513 311.229C144.583 311.229 143.118 312.084 143.118 313.793C143.118 315.095 143.826 315.746 145.242 315.746H147.977C151.777 315.746 153.677 317.374 153.677 320.629C153.677 324.291 151.26 326.122 146.426 326.122C144.221 326.122 142.243 325.837 140.494 325.268ZM156.119 325.268V322.338C157.868 322.989 159.846 323.314 162.051 323.314C164.729 323.314 166.067 322.419 166.067 320.629C166.067 319.327 165.245 318.676 163.602 318.676H160.867C157.295 318.676 155.508 317.048 155.508 313.793C155.508 310.212 158.051 308.422 163.138 308.422C165.091 308.422 166.942 308.707 168.692 309.276V312.206C166.942 311.555 165.091 311.229 163.138 311.229C160.208 311.229 158.743 312.084 158.743 313.793C158.743 315.095 159.451 315.746 160.867 315.746H163.602C167.402 315.746 169.302 317.374 169.302 320.629C169.302 324.291 166.885 326.122 162.051 326.122C159.846 326.122 157.868 325.837 156.119 325.268Z" fill="#9CC9F2"/>
<path id="React" d="M172.831 253.976V236.544H180.766C184.33 236.544 186.112 238.102 186.112 241.219C186.112 243.327 184.725 245.073 181.95 246.456L187.479 254H183.402L178.092 246.395V244.918C181.185 244.389 182.731 243.189 182.731 241.317C182.731 240.031 182.007 239.388 180.558 239.388H176.127V253.976H172.831ZM194.12 241.183C198.01 241.183 199.955 243.168 199.955 247.14C199.955 247.669 199.918 248.198 199.845 248.727H191.337C191.337 250.533 192.663 251.437 195.316 251.437C196.61 251.437 197.904 251.314 199.198 251.07V253.634C198.067 253.878 196.692 254 195.072 254C190.425 254 188.102 251.815 188.102 247.445C188.102 243.27 190.108 241.183 194.12 241.183ZM191.337 246.48H196.806V246.383C196.806 244.609 195.91 243.722 194.12 243.722C192.411 243.722 191.483 244.641 191.337 246.48ZM201.774 250.008C201.774 247.461 203.629 246.188 207.34 246.188C208.211 246.188 209.082 246.269 209.953 246.432V245.467C209.953 244.32 209.127 243.746 207.475 243.746C206.075 243.746 204.521 243.95 202.812 244.356V241.793C204.521 241.386 206.075 241.183 207.475 241.183C211.283 241.183 213.188 242.59 213.188 245.406V254H211.308L210.16 252.853C209.045 253.618 207.816 254 206.474 254C203.34 254 201.774 252.669 201.774 250.008ZM209.953 248.629C209.139 248.466 208.268 248.385 207.34 248.385C205.786 248.385 205.009 248.914 205.009 249.972C205.009 251.111 205.66 251.681 206.962 251.681C208.036 251.681 209.033 251.347 209.953 250.68V248.629ZM225.712 253.634C224.654 253.878 223.555 254 222.416 254C217.859 254 215.58 251.782 215.58 247.347C215.58 243.237 217.859 241.183 222.416 241.183C223.555 241.183 224.654 241.305 225.712 241.549V244.112C224.654 243.868 223.637 243.746 222.66 243.746C220.097 243.746 218.815 244.946 218.815 247.347C218.815 250.073 220.097 251.437 222.66 251.437C223.637 251.437 224.654 251.314 225.712 251.07V253.634ZM227.665 239.107H230.058L230.546 241.183H233.769V243.746H230.9V249.642C230.9 250.838 231.417 251.437 232.45 251.437H233.769V254H230.888C228.739 254 227.665 252.848 227.665 250.545V239.107Z" fill="#9CC9F2"/>
<path id="commitment" d="M367.986 350.634C366.928 350.878 365.83 351 364.69 351C360.133 351 357.854 348.782 357.854 344.347C357.854 340.237 360.133 338.183 364.69 338.183C365.83 338.183 366.928 338.305 367.986 338.549V341.112C366.928 340.868 365.911 340.746 364.935 340.746C362.371 340.746 361.089 341.946 361.089 344.347C361.089 347.073 362.371 348.437 364.935 348.437C365.911 348.437 366.928 348.314 367.986 348.07V350.634ZM372.747 344.542C372.747 347.22 373.785 348.559 375.86 348.559C377.935 348.559 378.973 347.22 378.973 344.542C378.973 341.93 377.935 340.624 375.86 340.624C373.785 340.624 372.747 341.93 372.747 344.542ZM369.512 344.591C369.512 340.294 371.628 338.146 375.86 338.146C380.092 338.146 382.208 340.294 382.208 344.591C382.208 348.88 380.092 351.024 375.86 351.024C371.644 351.024 369.528 348.88 369.512 344.591ZM384.649 351V338.183H387.151L387.53 340.038C388.677 338.801 390.057 338.183 391.668 338.183C393.279 338.183 394.382 338.769 394.976 339.94C396.286 338.769 397.658 338.183 399.09 338.183C402.036 338.183 403.509 339.806 403.509 343.053V351H400.274V342.931C400.274 341.507 399.631 340.795 398.345 340.795C397.385 340.795 396.461 341.226 395.574 342.089V351H392.339V342.968C392.339 341.519 391.745 340.795 390.557 340.795C389.613 340.795 388.722 341.226 387.884 342.089V351H384.649ZM406.573 351V338.183H409.075L409.454 340.038C410.601 338.801 411.98 338.183 413.592 338.183C415.203 338.183 416.306 338.769 416.9 339.94C418.21 338.769 419.581 338.183 421.014 338.183C423.96 338.183 425.433 339.806 425.433 343.053V351H422.198V342.931C422.198 341.507 421.555 340.795 420.269 340.795C419.309 340.795 418.385 341.226 417.498 342.089V351H414.263V342.968C414.263 341.519 413.669 340.795 412.481 340.795C411.537 340.795 410.646 341.226 409.808 342.089V351H406.573ZM431.731 333.544V336.107H428.497V333.544H431.731ZM431.731 338.183V351H428.497V338.183H431.731ZM434.612 336.107H437.005L437.493 338.183H440.716V340.746H437.847V346.642C437.847 347.838 438.364 348.437 439.397 348.437H440.716V351H437.835C435.687 351 434.612 349.848 434.612 347.545V336.107ZM442.925 351V338.183H445.428L445.806 340.038C446.954 338.801 448.333 338.183 449.944 338.183C451.556 338.183 452.658 338.769 453.252 339.94C454.563 338.769 455.934 338.183 457.366 338.183C460.312 338.183 461.785 339.806 461.785 343.053V351H458.55V342.931C458.55 341.507 457.907 340.795 456.622 340.795C455.661 340.795 454.738 341.226 453.851 342.089V351H450.616V342.968C450.616 341.519 450.022 340.795 448.833 340.795C447.889 340.795 446.998 341.226 446.16 342.089V351H442.925ZM470.257 338.183C474.147 338.183 476.092 340.168 476.092 344.14C476.092 344.669 476.055 345.198 475.982 345.727H467.474C467.474 347.533 468.8 348.437 471.453 348.437C472.747 348.437 474.041 348.314 475.335 348.07V350.634C474.204 350.878 472.828 351 471.209 351C466.562 351 464.239 348.815 464.239 344.445C464.239 340.27 466.245 338.183 470.257 338.183ZM467.474 343.48H472.942V343.383C472.942 341.609 472.047 340.722 470.257 340.722C468.548 340.722 467.62 341.641 467.474 343.48ZM478.521 351V338.183H481.023L481.426 340.062C482.655 338.809 484.055 338.183 485.625 338.183C488.661 338.183 490.179 339.761 490.179 342.919V351H486.944V342.919C486.944 341.503 486.24 340.795 484.832 340.795C483.782 340.795 482.757 341.214 481.756 342.052V351H478.521ZM493.06 336.107H495.452L495.94 338.183H499.163V340.746H496.294V346.642C496.294 347.838 496.811 348.437 497.845 348.437H499.163V351H496.282C494.134 351 493.06 349.848 493.06 347.545V336.107Z" fill="#9CC9F2"/>
<path id="pug" d="M317.761 300.655C318.566 301.095 319.433 301.314 320.361 301.314C322.29 301.314 323.254 299.959 323.254 297.25C323.254 294.946 322.188 293.795 320.056 293.795C319.136 293.795 318.371 293.852 317.761 293.966V300.655ZM314.526 291.708C316.227 291.358 318.025 291.183 319.921 291.183C324.275 291.183 326.452 293.213 326.452 297.274C326.452 301.758 324.426 304 320.373 304C319.51 304 318.64 303.797 317.761 303.39V308.639H314.526V291.708ZM340.441 291.183V304H337.915L337.524 302.364C336.051 303.455 334.488 304 332.836 304C330.216 304 328.906 302.45 328.906 299.349V291.183H332.141V299.264C332.141 300.68 332.759 301.388 333.996 301.388C335.046 301.388 336.116 300.969 337.207 300.13V291.183H340.441ZM351.708 294.088C351.18 293.893 350.427 293.795 349.45 293.795C347.212 293.795 346.093 295.028 346.093 297.494C346.093 299.878 347.058 301.07 348.986 301.07C349.914 301.07 350.821 300.851 351.708 300.411V294.088ZM354.943 303.023C354.943 306.767 352.693 308.639 348.193 308.639C346.614 308.639 345.214 308.435 343.994 308.028V305.465C345.239 305.872 346.647 306.075 348.217 306.075C350.545 306.075 351.708 305.099 351.708 303.146C350.748 303.552 349.715 303.756 348.608 303.756C344.799 303.756 342.895 301.677 342.895 297.518C342.895 293.294 345.113 291.183 349.548 291.183C351.037 291.183 352.836 291.358 354.943 291.708V303.023Z" fill="#9CC9F2"/>
<path id="mvvm" d="M79.5259 354V341.183H82.0283L82.4067 343.038C83.5542 341.801 84.9336 341.183 86.5449 341.183C88.1562 341.183 89.259 341.769 89.853 342.94C91.1632 341.769 92.5345 341.183 93.9668 341.183C96.9128 341.183 98.3857 342.806 98.3857 346.053V354H95.1509V345.931C95.1509 344.507 94.508 343.795 93.2222 343.795C92.2619 343.795 91.3382 344.226 90.4512 345.089V354H87.2163V345.968C87.2163 344.519 86.6222 343.795 85.4341 343.795C84.4901 343.795 83.599 344.226 82.7607 345.089V354H79.5259ZM99.9238 341.183H103.342L106.455 350.143L109.689 341.183H113.107L107.895 354H104.819L99.9238 341.183ZM113.107 341.183H116.525L119.638 350.143L122.873 341.183H126.291L121.079 354H118.002L113.107 341.183ZM127.817 354V341.183H130.319L130.698 343.038C131.845 341.801 133.225 341.183 134.836 341.183C136.447 341.183 137.55 341.769 138.144 342.94C139.454 341.769 140.826 341.183 142.258 341.183C145.204 341.183 146.677 342.806 146.677 346.053V354H143.442V345.931C143.442 344.507 142.799 343.795 141.513 343.795C140.553 343.795 139.629 344.226 138.742 345.089V354H135.507V345.968C135.507 344.519 134.913 343.795 133.725 343.795C132.781 343.795 131.89 344.226 131.052 345.089V354H127.817Z" fill="#E995D2"/>
</g>
</svg>
