<svg width="636" height="654" viewBox="0 0 636 654" fill="none" xmlns="http://www.w3.org/2000/svg">
<g id="slide-2">
<path id="Ellipse 21" d="M205.735 611.368C258.235 679.368 462.173 666.675 502.734 564.367C524.734 447.367 410.721 489.026 433.235 379.367C356.733 48.6972 -71.7664 401.696 205.735 611.368Z" fill="white"/>
<g id="chair">
<g id="chair-structure">
<path fill-rule="evenodd" clip-rule="evenodd" d="M255.198 556.794H439.794V569.794V570.444V617.893H429.394V570.444H255.198V617.893H244.798L244.798 570.444L172.65 396.897H186.95L221.074 476.846L255.198 556.794Z" fill="black"/>
<path d="M439.794 556.794H440.294V556.294H439.794V556.794ZM255.198 556.794L254.738 556.99L254.868 557.294H255.198V556.794ZM439.794 617.893V618.393H440.294V617.893H439.794ZM429.394 617.893H428.894V618.393H429.394V617.893ZM429.394 570.444H429.894V569.944H429.394V570.444ZM255.198 570.444V569.944H254.698V570.444H255.198ZM255.198 617.893V618.393H255.698V617.893H255.198ZM244.798 617.893L244.298 617.893L244.298 618.393H244.798V617.893ZM244.798 570.444L245.298 570.444L245.298 570.344L245.26 570.252L244.798 570.444ZM172.65 396.897V396.397H171.901L172.188 397.089L172.65 396.897ZM186.95 396.897L187.409 396.701L187.28 396.397H186.95V396.897ZM221.074 476.846L221.534 476.649L221.534 476.649L221.074 476.846ZM439.794 556.294H255.198V557.294H439.794V556.294ZM440.294 569.794V556.794H439.294V569.794H440.294ZM439.294 569.794V570.444H440.294V569.794H439.294ZM439.294 570.444V617.893H440.294V570.444H439.294ZM439.794 617.393H429.394V618.393H439.794V617.393ZM429.894 617.893V570.444H428.894V617.893H429.894ZM255.198 570.944H429.394V569.944H255.198V570.944ZM254.698 570.444V617.893H255.698V570.444H254.698ZM255.198 617.393H244.798V618.393H255.198V617.393ZM245.298 617.893L245.298 570.444L244.298 570.444L244.298 617.893L245.298 617.893ZM172.188 397.089L244.337 570.636L245.26 570.252L173.112 396.706L172.188 397.089ZM186.95 396.397H172.65V397.397H186.95V396.397ZM221.534 476.649L187.409 396.701L186.49 397.094L220.614 477.042L221.534 476.649ZM255.658 556.598L221.534 476.649L220.614 477.042L254.738 556.99L255.658 556.598Z" fill="black"/>
</g>
<path id="Vector 12" d="M214.898 408.599C202.569 394.298 193.449 408.599 193.449 408.599L255.197 556.146H430.044C430.044 556.146 435.244 536.646 424.194 534.696C413.144 532.747 272.097 539.246 272.097 539.246C272.097 539.246 227.228 422.9 214.898 408.599Z" fill="#356EC2" stroke="#356EC2"/>
</g>
<path id="Rectangle 27" d="M0 618H636V635H0V618Z" fill="#FFB6C1"/>
<path id="JS" d="M430.047 297.141V336.906C430.047 347.635 422.69 353 407.977 353V344.016C415.789 344.016 419.695 341.646 419.695 336.906V297.141H430.047ZM440.789 350.656V341.281C446.388 343.365 452.716 344.406 459.773 344.406C468.341 344.406 472.625 341.542 472.625 335.812C472.625 331.646 469.995 329.562 464.734 329.562H455.984C444.552 329.562 438.836 324.354 438.836 313.938C438.836 302.479 446.974 296.75 463.25 296.75C469.5 296.75 475.424 297.661 481.023 299.484V308.859C475.424 306.776 469.5 305.734 463.25 305.734C453.875 305.734 449.188 308.469 449.188 313.938C449.188 318.104 451.453 320.188 455.984 320.188H464.734C476.896 320.188 482.977 325.396 482.977 335.812C482.977 347.531 475.242 353.391 459.773 353.391C452.716 353.391 446.388 352.479 440.789 350.656Z" fill="#E995D2"/>
<path id="nodeJS" d="M38.6621 269V238.238H44.668L45.6348 242.75C48.584 239.742 51.9434 238.238 55.7129 238.238C62.998 238.238 66.6406 242.027 66.6406 249.605V269H58.877V249.605C58.877 246.207 57.1875 244.508 53.8086 244.508C51.2891 244.508 48.8281 245.514 46.4258 247.525V269H38.6621ZM80.293 253.502C80.293 259.928 82.7832 263.141 87.7637 263.141C92.7441 263.141 95.2344 259.928 95.2344 253.502C95.2344 247.232 92.7441 244.098 87.7637 244.098C82.7832 244.098 80.293 247.232 80.293 253.502ZM72.5293 253.619C72.5293 243.307 77.6074 238.15 87.7637 238.15C97.9199 238.15 102.998 243.307 102.998 253.619C102.998 263.912 97.9199 269.059 87.7637 269.059C77.6465 269.059 72.5684 263.912 72.5293 253.619ZM128.34 246.266C126.738 245.211 124.727 244.684 122.305 244.684C117.48 244.684 115.068 247.389 115.068 252.799C115.068 259.225 117.578 262.438 122.598 262.438C124.629 262.438 126.543 262.154 128.34 261.588V246.266ZM136.104 267.154C131.396 268.385 126.797 269 122.305 269C112.363 269 107.393 263.668 107.393 253.004C107.393 243.16 112.256 238.238 121.982 238.238C124.053 238.238 126.172 238.727 128.34 239.703V227.105H136.104V267.154ZM156.406 238.238C165.742 238.238 170.41 243.004 170.41 252.535C170.41 253.805 170.322 255.074 170.146 256.344H149.727C149.727 260.68 152.91 262.848 159.277 262.848C162.383 262.848 165.488 262.555 168.594 261.969V268.121C165.879 268.707 162.578 269 158.691 269C147.539 269 141.963 263.756 141.963 253.268C141.963 243.248 146.777 238.238 156.406 238.238ZM149.727 250.953H162.852V250.719C162.852 246.461 160.703 244.332 156.406 244.332C152.305 244.332 150.078 246.539 149.727 250.953ZM189.863 227.105V256.93C189.863 264.977 184.346 269 173.311 269V262.262C179.17 262.262 182.1 260.484 182.1 256.93V227.105H189.863ZM197.92 267.242V260.211C202.119 261.773 206.865 262.555 212.158 262.555C218.584 262.555 221.797 260.406 221.797 256.109C221.797 252.984 219.824 251.422 215.879 251.422H209.316C200.742 251.422 196.455 247.516 196.455 239.703C196.455 231.109 202.559 226.812 214.766 226.812C219.453 226.812 223.896 227.496 228.096 228.863V235.895C223.896 234.332 219.453 233.551 214.766 233.551C207.734 233.551 204.219 235.602 204.219 239.703C204.219 242.828 205.918 244.391 209.316 244.391H215.879C225 244.391 229.561 248.297 229.561 256.109C229.561 264.898 223.76 269.293 212.158 269.293C206.865 269.293 202.119 268.609 197.92 267.242Z" fill="#6AC1D5"/>
<path id="unit testing" d="M315.898 241.492V262H311.855L311.23 259.383C308.874 261.128 306.374 262 303.73 262C299.538 262 297.441 259.52 297.441 254.559V241.492H302.617V254.422C302.617 256.688 303.607 257.82 305.586 257.82C307.266 257.82 308.978 257.15 310.723 255.809V241.492H315.898ZM320.801 262V241.492H324.805L325.449 244.5C327.415 242.495 329.655 241.492 332.168 241.492C337.025 241.492 339.453 244.018 339.453 249.07V262H334.277V249.07C334.277 246.805 333.151 245.672 330.898 245.672C329.219 245.672 327.578 246.342 325.977 247.684V262H320.801ZM349.531 234.07V238.172H344.355V234.07H349.531ZM349.531 241.492V262H344.355V241.492H349.531ZM354.141 238.172H357.969L358.75 241.492H363.906V245.594H359.316V255.027C359.316 256.941 360.143 257.898 361.797 257.898H363.906V262H359.297C355.859 262 354.141 260.158 354.141 256.473V238.172ZM375.938 238.172H379.766L380.547 241.492H385.703V245.594H381.113V255.027C381.113 256.941 381.94 257.898 383.594 257.898H385.703V262H381.094C377.656 262 375.938 260.158 375.938 256.473V238.172ZM397.891 241.492C404.115 241.492 407.227 244.669 407.227 251.023C407.227 251.87 407.168 252.716 407.051 253.562H393.438C393.438 256.453 395.56 257.898 399.805 257.898C401.875 257.898 403.945 257.703 406.016 257.312V261.414C404.206 261.805 402.005 262 399.414 262C391.979 262 388.262 258.504 388.262 251.512C388.262 244.832 391.471 241.492 397.891 241.492ZM393.438 249.969H402.188V249.812C402.188 246.974 400.755 245.555 397.891 245.555C395.156 245.555 393.672 247.026 393.438 249.969ZM411.113 261.023V256.727C413.392 257.638 416.022 258.094 419.004 258.094C421.23 258.094 422.344 257.378 422.344 255.945C422.344 254.578 421.595 253.895 420.098 253.895H416.387C412.22 253.895 410.137 251.844 410.137 247.742C410.137 243.445 413.177 241.297 419.258 241.297C421.836 241.297 424.264 241.688 426.543 242.469V246.766C424.264 245.854 421.79 245.398 419.121 245.398C416.322 245.398 414.922 246.115 414.922 247.547C414.922 248.914 415.736 249.598 417.363 249.598H420.684C425.241 249.598 427.52 251.648 427.52 255.75C427.52 260.047 424.616 262.195 418.809 262.195C415.957 262.195 413.392 261.805 411.113 261.023ZM430.859 238.172H434.688L435.469 241.492H440.625V245.594H436.035V255.027C436.035 256.941 436.862 257.898 438.516 257.898H440.625V262H436.016C432.578 262 430.859 260.158 430.859 256.473V238.172ZM449.336 234.07V238.172H444.16V234.07H449.336ZM449.336 241.492V262H444.16V241.492H449.336ZM454.238 262V241.492H458.242L458.887 244.5C460.853 242.495 463.092 241.492 465.605 241.492C470.462 241.492 472.891 244.018 472.891 249.07V262H467.715V249.07C467.715 246.805 466.589 245.672 464.336 245.672C462.656 245.672 461.016 246.342 459.414 247.684V262H454.238ZM490.918 246.141C490.072 245.828 488.867 245.672 487.305 245.672C483.724 245.672 481.934 247.645 481.934 251.59C481.934 255.405 483.477 257.312 486.562 257.312C488.047 257.312 489.499 256.961 490.918 256.258V246.141ZM496.094 260.438C496.094 266.427 492.493 269.422 485.293 269.422C482.767 269.422 480.527 269.096 478.574 268.445V264.344C480.566 264.995 482.819 265.32 485.332 265.32C489.056 265.32 490.918 263.758 490.918 260.633C489.382 261.284 487.728 261.609 485.957 261.609C479.863 261.609 476.816 258.283 476.816 251.629C476.816 244.871 480.365 241.492 487.461 241.492C489.844 241.492 492.721 241.772 496.094 242.332V260.438Z" fill="#6AC1D5"/>
<path id="CSS" d="M95.793 355.242C92.1797 356.609 88.0781 357.293 83.4883 357.293C68.4492 357.293 60.9297 350.018 60.9297 335.467C60.9297 321.697 68.4492 314.812 83.4883 314.812C88.0781 314.812 92.1797 315.496 95.793 316.863V323.895C92.1797 322.332 88.2734 321.551 84.0742 321.551C74.0156 321.551 68.9863 326.189 68.9863 335.467C68.9863 345.525 74.0156 350.555 84.0742 350.555C88.2734 350.555 92.1797 349.773 95.793 348.211V355.242ZM102.385 355.242V348.211C106.584 349.773 111.33 350.555 116.623 350.555C123.049 350.555 126.262 348.406 126.262 344.109C126.262 340.984 124.289 339.422 120.344 339.422H113.781C105.207 339.422 100.92 335.516 100.92 327.703C100.92 319.109 107.023 314.812 119.23 314.812C123.918 314.812 128.361 315.496 132.561 316.863V323.895C128.361 322.332 123.918 321.551 119.23 321.551C112.199 321.551 108.684 323.602 108.684 327.703C108.684 330.828 110.383 332.391 113.781 332.391H120.344C129.465 332.391 134.025 336.297 134.025 344.109C134.025 352.898 128.225 357.293 116.623 357.293C111.33 357.293 106.584 356.609 102.385 355.242ZM139.885 355.242V348.211C144.084 349.773 148.83 350.555 154.123 350.555C160.549 350.555 163.762 348.406 163.762 344.109C163.762 340.984 161.789 339.422 157.844 339.422H151.281C142.707 339.422 138.42 335.516 138.42 327.703C138.42 319.109 144.523 314.812 156.73 314.812C161.418 314.812 165.861 315.496 170.061 316.863V323.895C165.861 322.332 161.418 321.551 156.73 321.551C149.699 321.551 146.184 323.602 146.184 327.703C146.184 330.828 147.883 332.391 151.281 332.391H157.844C166.965 332.391 171.525 336.297 171.525 344.109C171.525 352.898 165.725 357.293 154.123 357.293C148.83 357.293 144.084 356.609 139.885 355.242Z" fill="#9CC9F2"/>
<path id="React" d="M261.662 203.951V169.088H277.531C284.66 169.088 288.225 172.205 288.225 178.438C288.225 182.654 285.45 186.145 279.899 188.912L290.959 204H282.805L272.185 188.79V185.836C278.369 184.778 281.462 182.377 281.462 178.634C281.462 176.062 280.013 174.776 277.116 174.776H268.254V203.951H261.662ZM304.24 178.365C312.02 178.365 315.91 182.337 315.91 190.279C315.91 191.337 315.837 192.395 315.69 193.453H298.674C298.674 197.066 301.327 198.873 306.633 198.873C309.221 198.873 311.809 198.629 314.396 198.141V203.268C312.134 203.756 309.383 204 306.145 204C296.851 204 292.204 199.63 292.204 190.89C292.204 182.54 296.216 178.365 304.24 178.365ZM298.674 188.961H309.611V188.766C309.611 185.217 307.821 183.443 304.24 183.443C300.822 183.443 298.967 185.283 298.674 188.961ZM319.548 196.017C319.548 190.922 323.259 188.375 330.681 188.375C332.422 188.375 334.164 188.538 335.905 188.863V186.935C335.905 184.64 334.253 183.492 330.949 183.492C328.15 183.492 325.041 183.899 321.623 184.713V179.586C325.041 178.772 328.15 178.365 330.949 178.365C338.566 178.365 342.375 181.181 342.375 186.812V204H338.615L336.32 201.705C334.09 203.235 331.633 204 328.947 204C322.681 204 319.548 201.339 319.548 196.017ZM335.905 193.258C334.278 192.932 332.536 192.77 330.681 192.77C327.572 192.77 326.018 193.827 326.018 195.943C326.018 198.222 327.32 199.361 329.924 199.361C332.072 199.361 334.066 198.694 335.905 197.359V193.258ZM367.424 203.268C365.308 203.756 363.111 204 360.832 204C351.717 204 347.16 199.565 347.16 190.694C347.16 182.475 351.717 178.365 360.832 178.365C363.111 178.365 365.308 178.609 367.424 179.098V184.225C365.308 183.736 363.273 183.492 361.32 183.492C356.193 183.492 353.63 185.893 353.63 190.694C353.63 196.147 356.193 198.873 361.32 198.873C363.273 198.873 365.308 198.629 367.424 198.141V203.268ZM371.33 174.215H376.115L377.092 178.365H383.537V183.492H377.8V195.284C377.8 197.677 378.833 198.873 380.9 198.873H383.537V204H377.775C373.479 204 371.33 201.697 371.33 197.091V174.215Z" fill="#9CC9F2"/>
<path id="Vue" d="M80.9141 394.088L65.6064 429H58.6484L44 394.088H51.6904L62.5059 420.821L73.2969 394.088H80.9141ZM107.037 403.365V429H101.983L101.202 425.729C98.2562 427.91 95.1312 429 91.8271 429C86.5863 429 83.9658 425.899 83.9658 419.698V403.365H90.4355V419.527C90.4355 422.359 91.6725 423.775 94.1465 423.775C96.2461 423.775 98.3864 422.937 100.567 421.261V403.365H107.037ZM123.98 403.365C131.76 403.365 135.65 407.337 135.65 415.279C135.65 416.337 135.577 417.395 135.431 418.453H118.414C118.414 422.066 121.067 423.873 126.373 423.873C128.961 423.873 131.549 423.629 134.137 423.141V428.268C131.874 428.756 129.124 429 125.885 429C116.591 429 111.944 424.63 111.944 415.89C111.944 407.54 115.956 403.365 123.98 403.365ZM118.414 413.961H129.352V413.766C129.352 410.217 127.561 408.443 123.98 408.443C120.562 408.443 118.707 410.283 118.414 413.961Z" fill="#E995D2"/>
</g>
</svg>
