<svg width="604" height="658" viewBox="0 0 604 658" fill="none" xmlns="http://www.w3.org/2000/svg">
<g id="slide-0">
<path id="Ellipse 20" d="M387.998 597.084C296.214 679.614 142.417 682.249 101.856 579.942C79.8563 462.942 189.371 471.049 166.857 361.391C125.856 208.892 344.042 211.05 411.675 286.268C479.308 361.485 479.782 514.554 387.998 597.084Z" fill="white"/>
<path id="Rectangle 41" d="M0 621H604V638H0V621Z" fill="#FFB6C1"/>
<path id="ladder" fill-rule="evenodd" clip-rule="evenodd" d="M217 0H237.56V79.2764H353.44V105.702H237.56V195.549H353.44V221.974H237.56V311.821H353.441V0H374V621H353.441V570.793H237.56V621H217V0ZM237.56 544.367H353.441V454.519H237.56V544.367ZM353.441 338.246V428.094H237.56V338.246H353.441Z" fill="#4296A9"/>
</g>
</svg>
